<svg width="322" height="286" viewBox="0 0 322 286" fill="none" xmlns="http://www.w3.org/2000/svg">
<g clip-path="url(#clip0_1_577)">
<ellipse cx="139.509" cy="62.3231" rx="102.23" ry="41.0666" transform="rotate(18 139.509 62.3231)" fill="#C5B6F0" stroke="#191919" stroke-width="1.64361"/>
<ellipse cx="148.86" cy="55.9924" rx="105.673" ry="40.8935" transform="rotate(18 148.86 55.9924)" fill="white" stroke="#191919" stroke-width="1.64361"/>
<path opacity="0.9" d="M116.743 51.1397L118.334 46.2452L106.757 42.4838L109.509 34.0143L123.299 38.4948L124.93 33.4727L105.693 27.2222L95.5845 58.3337L101.032 60.1038L105.167 47.3783L116.743 51.1397ZM125.18 67.9499L128.955 56.331L135.637 58.5021L137.14 71.8358L143.098 73.7718L141.331 59.0815C145.475 58.7812 148.401 56.4381 149.756 52.2672C151.747 46.1385 148.78 41.2221 141.715 38.9265L129.841 35.0683L119.732 66.1798L125.18 67.9499ZM133.712 41.6902L140.139 43.7784C143.586 44.8985 145.062 47.3072 144.053 50.4141C143.029 53.5636 140.392 54.7299 136.945 53.6098L130.518 51.5217L133.712 41.6902ZM167.567 81.7222L169.199 76.7001L155.324 72.1919L158.007 63.9352L170.434 67.9732L171.997 63.1639L159.569 59.1259L162.169 51.1246L176.044 55.6328L177.676 50.6106L158.353 44.3324L148.244 75.444L167.567 81.7222ZM192.795 89.9194L194.427 84.8973L180.553 80.3892L183.235 72.1325L195.663 76.1705L197.226 71.3612L184.798 67.3232L187.398 59.3219L201.272 63.83L202.904 58.8079L183.582 52.5297L173.473 83.6412L192.795 89.9194Z" fill="#191919"/>
<rect x="69.2988" y="128.262" width="209.281" height="77.5542" rx="38.7771" transform="rotate(-5 69.2988 128.262)" fill="#FFFBA0" stroke="#191919" stroke-width="1.53883"/>
<rect x="76.9707" y="122.116" width="209.281" height="73.864" rx="36.932" transform="rotate(-5 76.9707 122.116)" fill="white" stroke="#191919" stroke-width="1.53883"/>
<path opacity="0.9" d="M139.807 160.831L139.027 154.338L123.671 156.182L122.322 144.947L140.614 142.751L139.814 136.089L114.295 139.153L119.251 180.423L126.477 179.555L124.45 162.675L139.807 160.831ZM158.51 175.709L156.659 160.296L165.523 159.232L174.375 173.804L182.279 172.855L172.397 156.86C177.015 154.301 179.138 150.037 178.473 144.504C177.497 136.374 171.451 132.29 162.079 133.415L146.328 135.307L151.284 176.577L158.51 175.709ZM154.327 140.875L162.852 139.851C167.425 139.302 170.413 141.291 170.908 145.413C171.41 149.591 168.991 152.344 164.418 152.893L155.893 153.916L154.327 140.875ZM214.737 168.957L213.937 162.295L195.532 164.505L194.217 153.553L210.702 151.573L209.936 145.193L193.451 147.173L192.176 136.559L210.581 134.349L209.781 127.687L184.15 130.765L189.106 172.035L214.737 168.957ZM248.203 164.938L247.403 158.276L228.998 160.487L227.683 149.534L244.169 147.554L243.403 141.175L226.917 143.154L225.643 132.54L244.048 130.33L243.248 123.668L217.616 126.746L222.572 168.016L248.203 164.938Z" fill="#191919"/>
<rect x="40.6543" y="187.32" width="194.001" height="81.5058" rx="6.25327" transform="rotate(5 40.6543 187.32)" fill="#EBFFDB" stroke="#191919" stroke-width="1.56332"/>
<rect x="49.9395" y="185.643" width="191.506" height="75.0393" rx="6.25327" transform="rotate(5 49.9395 185.643)" fill="white" stroke="#191919" stroke-width="1.56332"/>
<path opacity="0.9" d="M101.922 232.364L102.458 226.236L87.9644 224.968L88.8921 214.364L106.157 215.875L106.707 209.587L82.6217 207.48L79.2138 246.432L86.0344 247.029L87.4283 231.096L101.922 232.364ZM116.268 249.674L117.541 235.127L125.906 235.859L131.241 250.984L138.701 251.636L132.693 235.003C137.439 233.539 140.216 230.023 140.673 224.801C141.345 217.128 136.567 212.2 127.722 211.426L112.855 210.125L109.447 249.077L116.268 249.674ZM119.144 216.796L127.19 217.5C131.507 217.878 133.873 220.286 133.533 224.176C133.188 228.119 130.43 230.187 126.114 229.809L118.067 229.105L119.144 216.796ZM169.337 254.317L169.887 248.029L152.515 246.509L153.42 236.172L168.979 237.533L169.506 231.512L153.947 230.15L154.823 220.133L172.194 221.652L172.744 215.365L148.553 213.248L145.145 252.2L169.337 254.317ZM200.923 257.08L201.473 250.792L184.102 249.273L185.006 238.935L200.566 240.296L201.093 234.275L185.533 232.914L186.41 222.896L203.781 224.416L204.331 218.128L180.139 216.012L176.731 254.964L200.923 257.08Z" fill="#191919"/>
<path d="M59.1846 121.524L61.5766 123.964L64.0171 126.356M59.1846 121.524L56.7926 123.964L54.352 126.356M59.1846 121.524V114.8M64.0171 126.356L61.5766 128.748L59.1846 131.189M64.0171 126.356H70.9742M59.1846 131.189L56.7926 128.748L54.352 126.356M59.1846 131.189V137.913M54.352 126.356H47.4414" stroke="#191919" stroke-width="1.23955" stroke-linecap="round" stroke-linejoin="round"/>
<path d="M9.5453 48.27L11.3937 50.1559L13.2797 52.0043M9.5453 48.27L7.69688 50.1559L5.81091 52.0043M9.5453 48.27V43.0742M13.2797 52.0043L11.3937 53.8528L9.5453 55.7387M13.2797 52.0043H18.6558M9.5453 55.7387L7.69688 53.8528L5.81091 52.0043M9.5453 55.7387V60.9346M5.81091 52.0043H0.470703" stroke="#191919" stroke-width="1.23955" stroke-linecap="round" stroke-linejoin="round"/>
<path d="M312.729 39.3398L314.577 41.2257L316.463 43.0742M312.729 39.3398L310.88 41.2257L308.995 43.0742M312.729 39.3398V34.144M316.463 43.0742L314.577 44.9226L312.729 46.8086M316.463 43.0742H321.839M312.729 46.8086L310.88 44.9226L308.995 43.0742M312.729 46.8086V52.0045M308.995 43.0742H303.654" stroke="#191919" stroke-width="1.23955" stroke-linecap="round" stroke-linejoin="round"/>
</g>
<defs>
<clipPath id="clip0_1_577">
<rect width="322" height="286" fill="white"/>
</clipPath>
</defs>
</svg>
