<svg width="284" height="303" viewBox="0 0 284 303" fill="none" xmlns="http://www.w3.org/2000/svg">
<path d="M136 194L136 235" stroke="#191919" stroke-linejoin="round" stroke-dasharray="3.5 3.5"/>
<path d="M58.5 244C58.5 237.649 63.6487 232.5 70 232.5H231C237.351 232.5 242.5 237.649 242.5 244V302.5H58.5V244Z" fill="white" stroke="#191919"/>
<path d="M51.5 238C51.5 231.649 56.6487 226.5 63 226.5H224C230.351 226.5 235.5 231.649 235.5 238V302.5H51.5V238Z" fill="white" stroke="#191919"/>
<path d="M44.5 231C44.5 224.649 49.6487 219.5 56 219.5H217C223.351 219.5 228.5 224.649 228.5 231V302.5H44.5V231Z" fill="white" stroke="#191919"/>
<path opacity="0.6" d="M69.366 241.601H68.092V251H73.5V249.817H69.366V241.601ZM75.274 243.135C75.716 243.135 76.08 242.771 76.08 242.329C76.08 241.874 75.716 241.523 75.274 241.523C74.832 241.523 74.468 241.874 74.468 242.329C74.468 242.771 74.832 243.135 75.274 243.135ZM74.676 251H75.898V244.643H74.676V251ZM76.9961 244.643V245.67H77.9321V251H79.1541V245.67H80.6621V244.643H79.1541V243.629C79.1541 242.94 79.3621 242.537 80.1551 242.537H80.7011V241.484C80.4541 241.445 80.1811 241.432 79.9471 241.432C78.7901 241.432 77.9321 242.069 77.9321 243.629V244.643H76.9961ZM84.3506 251.156C85.9236 251.156 86.9896 250.389 87.3016 249.024H86.1576C85.9496 249.752 85.3256 250.142 84.3766 250.142C83.1676 250.142 82.4656 249.401 82.3746 248.062L87.2886 248.049V247.594C87.2886 245.709 86.1056 244.461 84.2986 244.461C82.4526 244.461 81.1916 245.839 81.1916 247.828C81.1916 249.804 82.4786 251.156 84.3506 251.156ZM84.2986 245.488C85.3776 245.488 86.0666 246.19 86.0666 247.243H82.4006C82.5566 246.125 83.2326 245.488 84.2986 245.488ZM90.3841 251V245.67H91.6321V244.643H90.3841V242.654H89.1621V244.643H87.9141V245.67H89.1621V251H90.3841ZM93.3267 243.135C93.7687 243.135 94.1327 242.771 94.1327 242.329C94.1327 241.874 93.7687 241.523 93.3267 241.523C92.8847 241.523 92.5207 241.874 92.5207 242.329C92.5207 242.771 92.8847 243.135 93.3267 243.135ZM92.7287 251H93.9507V244.643H92.7287V251ZM96.9468 251V247.23C96.9468 246.216 97.5578 245.579 98.4808 245.579C99.3388 245.579 99.8848 246.125 99.8848 247.126V251H101.094V247.23C101.094 246.216 101.705 245.566 102.628 245.566C103.486 245.566 104.045 246.138 104.045 247.139V251H105.241V246.84C105.241 245.371 104.357 244.461 102.901 244.461C101.913 244.461 101.146 244.955 100.847 245.748C100.522 244.955 99.8198 244.461 98.8318 244.461C97.9348 244.461 97.2588 244.877 96.9338 245.475L96.8168 244.643H95.7248V251H96.9468ZM109.678 251.156C111.251 251.156 112.317 250.389 112.629 249.024H111.485C111.277 249.752 110.653 250.142 109.704 250.142C108.495 250.142 107.793 249.401 107.702 248.062L112.616 248.049V247.594C112.616 245.709 111.433 244.461 109.626 244.461C107.78 244.461 106.519 245.839 106.519 247.828C106.519 249.804 107.806 251.156 109.678 251.156ZM109.626 245.488C110.705 245.488 111.394 246.19 111.394 247.243H107.728C107.884 246.125 108.56 245.488 109.626 245.488ZM119.316 251H120.525L123.177 244.643H121.903L120.486 248.192C120.265 248.751 120.057 249.297 119.953 249.713C119.849 249.323 119.667 248.79 119.446 248.192L118.055 244.643H116.755L119.316 251ZM125.717 251.156C126.744 251.156 127.615 250.701 127.94 249.973L128.07 251H129.11V247.009C129.11 245.293 128.044 244.461 126.471 244.461C124.833 244.461 123.741 245.332 123.741 246.658H124.807C124.807 245.891 125.392 245.436 126.419 245.436C127.277 245.436 127.914 245.813 127.914 246.879V247.061L125.912 247.217C124.417 247.334 123.546 248.062 123.546 249.232C123.546 250.389 124.352 251.156 125.717 251.156ZM126.068 250.207C125.275 250.207 124.781 249.869 124.781 249.193C124.781 248.569 125.223 248.153 126.302 248.049L127.927 247.919V248.257C127.927 249.453 127.225 250.207 126.068 250.207ZM132.05 251V241.432H130.828V251H132.05ZM138.243 244.643V247.997C138.243 249.362 137.632 250.077 136.514 250.077C135.578 250.077 134.993 249.557 134.993 248.192V244.643H133.771V248.595C133.771 250.155 134.603 251.156 136.085 251.156C137.021 251.156 137.866 250.701 138.23 250.038L138.36 251H139.452V244.643H138.243ZM143.841 251.156C145.414 251.156 146.48 250.389 146.792 249.024H145.648C145.44 249.752 144.816 250.142 143.867 250.142C142.658 250.142 141.956 249.401 141.865 248.062L146.779 248.049V247.594C146.779 245.709 145.596 244.461 143.789 244.461C141.943 244.461 140.682 245.839 140.682 247.828C140.682 249.804 141.969 251.156 143.841 251.156ZM143.789 245.488C144.868 245.488 145.557 246.19 145.557 247.243H141.891C142.047 246.125 142.723 245.488 143.789 245.488Z" fill="#0A0F0D"/>
<path d="M73.838 290.418H76.23V288.234C79.792 287.74 82.054 285.478 82.054 282.202C82.054 279.264 80.52 277.678 76.984 276.95L76.23 276.794V272.192C77.166 272.53 77.686 273.258 77.686 274.324H81.742C81.742 271.048 79.636 268.89 76.23 268.474V266.316H73.838V268.474C70.328 268.89 67.936 271.204 67.936 274.35C67.936 277.418 69.652 279.316 73.136 280.018L73.838 280.148V284.646C72.538 284.412 71.836 283.658 71.836 282.41H67.65C67.65 285.764 70.042 288 73.838 288.312V290.418ZM72.044 274.194C72.044 273.128 72.694 272.4 73.838 272.14V276.3C72.564 275.962 72.044 275.312 72.044 274.194ZM77.972 282.618C77.972 283.554 77.322 284.23 76.23 284.542V280.642C77.374 280.876 77.972 281.5 77.972 282.618ZM88.0958 272.53V288H92.1258V268.76H83.7278V272.53H88.0958ZM106.595 282.826C108.935 279.628 109.793 277.886 109.793 275.52C109.793 271.49 106.647 268.422 102.331 268.422C98.0674 268.422 94.9734 271.282 94.9734 275.494C94.9734 279.446 97.6774 282.176 101.629 282.176C101.889 282.176 102.149 282.15 102.409 282.098L98.0154 288H102.825L106.595 282.826ZM105.477 275.468C105.477 277.444 104.229 278.77 102.331 278.77C100.485 278.77 99.2374 277.444 99.2374 275.468C99.2374 273.492 100.511 272.14 102.331 272.14C104.203 272.14 105.477 273.492 105.477 275.468ZM116.179 286.674C116.179 284.88 115.139 283.632 113.631 283.632C112.279 283.632 111.395 284.594 111.395 286.024C111.395 287.168 112.331 288.078 113.553 288.078C113.839 288.078 114.099 288.026 114.307 287.922C114.229 288.988 113.293 289.69 111.993 289.924V291.354C114.437 291.094 116.179 289.17 116.179 286.674ZM117.124 268.76V272.66H127.16L120.4 288H124.768L131.398 272.66V268.76H117.124ZM132.2 282.436C132.2 286.05 135.138 288.312 139.818 288.312C144.498 288.312 147.462 286.024 147.462 282.41C147.462 280.174 146.24 278.354 144.316 277.626C145.902 276.924 146.76 275.546 146.76 273.752C146.76 270.528 144.004 268.396 139.87 268.396C135.736 268.396 132.902 270.554 132.902 273.7C132.902 275.494 133.734 276.846 135.268 277.6C133.396 278.354 132.2 280.2 132.2 282.436ZM136.698 274.116C136.698 272.79 137.894 271.958 139.792 271.958C141.69 271.958 142.886 272.79 142.886 274.116C142.886 275.416 141.69 276.222 139.792 276.222C137.894 276.222 136.698 275.416 136.698 274.116ZM136.334 282.15C136.334 280.59 137.66 279.654 139.818 279.654C141.976 279.654 143.302 280.59 143.302 282.15C143.302 283.71 142.002 284.62 139.818 284.62C137.634 284.62 136.334 283.71 136.334 282.15ZM160.804 282.826C163.144 279.628 164.002 277.886 164.002 275.52C164.002 271.49 160.856 268.422 156.54 268.422C152.276 268.422 149.182 271.282 149.182 275.494C149.182 279.446 151.886 282.176 155.838 282.176C156.098 282.176 156.358 282.15 156.618 282.098L152.224 288H157.034L160.804 282.826ZM159.686 275.468C159.686 277.444 158.438 278.77 156.54 278.77C154.694 278.77 153.446 277.444 153.446 275.468C153.446 273.492 154.72 272.14 156.54 272.14C158.412 272.14 159.686 273.492 159.686 275.468Z" fill="#0A0F0D"/>
<path d="M93 132V184C93 189.523 97.4772 194 103 194H145" stroke="#191919" stroke-linejoin="round" stroke-dasharray="4.5 4.5"/>
<circle cx="93.5" cy="124.5" r="17" fill="#FFFBA0" stroke="#191919"/>
<g clip-path="url(#clip0_1_597)">
<path d="M93.5 116.5C91.3267 116.5 91.0553 116.51 90.202 116.548C89.35 116.588 88.77 116.722 88.26 116.92C87.734 117.124 87.2873 117.398 86.8427 117.843C86.398 118.287 86.1233 118.733 85.92 119.26C85.722 119.77 85.5873 120.35 85.548 121.202C85.508 122.055 85.5 122.327 85.5 124.5C85.5 126.673 85.51 126.945 85.548 127.798C85.588 128.649 85.722 129.23 85.92 129.74C86.124 130.265 86.398 130.713 86.8427 131.157C87.2873 131.601 87.7333 131.877 88.26 132.08C88.7707 132.277 89.3507 132.413 90.202 132.452C91.0553 132.492 91.3267 132.5 93.5 132.5C95.6733 132.5 95.9447 132.49 96.798 132.452C97.6493 132.412 98.23 132.277 98.74 132.08C99.2653 131.876 99.7127 131.601 100.157 131.157C100.601 130.713 100.877 130.267 101.08 129.74C101.277 129.23 101.413 128.649 101.452 127.798C101.492 126.945 101.5 126.673 101.5 124.5C101.5 122.327 101.49 122.055 101.452 121.202C101.412 120.351 101.277 119.769 101.08 119.26C100.876 118.734 100.601 118.287 100.157 117.843C99.7127 117.398 99.2673 117.123 98.74 116.92C98.23 116.722 97.6493 116.587 96.798 116.548C95.9447 116.508 95.6733 116.5 93.5 116.5ZM93.5 117.94C95.6353 117.94 95.89 117.951 96.7333 117.987C97.5133 118.024 97.9367 118.153 98.218 118.264C98.5927 118.409 98.858 118.582 99.1393 118.861C99.4187 119.141 99.592 119.407 99.7367 119.782C99.846 120.063 99.9767 120.487 100.012 121.267C100.05 122.111 100.059 122.364 100.059 124.5C100.059 126.636 100.049 126.89 100.009 127.733C99.9687 128.513 99.8387 128.937 99.7287 129.218C99.5793 129.593 99.4093 129.858 99.1293 130.139C98.85 130.419 98.58 130.592 98.2093 130.737C97.9293 130.846 97.4993 130.977 96.7193 131.012C95.87 131.05 95.62 131.059 93.48 131.059C91.3393 131.059 91.0893 131.049 90.2407 131.009C89.46 130.969 89.03 130.839 88.75 130.729C88.3707 130.579 88.11 130.409 87.8307 130.129C87.55 129.85 87.3707 129.58 87.2307 129.209C87.1207 128.929 86.9913 128.499 86.9507 127.719C86.9207 126.879 86.91 126.62 86.91 124.49C86.91 122.359 86.9207 122.099 86.9507 121.249C86.9913 120.469 87.1207 120.04 87.2307 119.76C87.3707 119.38 87.55 119.12 87.8307 118.839C88.11 118.56 88.3707 118.38 88.75 118.241C89.03 118.13 89.4507 118 90.2307 117.96C91.0807 117.93 91.3307 117.92 93.47 117.92L93.5 117.94ZM93.5 120.392C91.23 120.392 89.392 122.232 89.392 124.5C89.392 126.77 91.232 128.608 93.5 128.608C95.77 128.608 97.608 126.768 97.608 124.5C97.608 122.23 95.768 120.392 93.5 120.392ZM93.5 127.167C92.0267 127.167 90.8333 125.973 90.8333 124.5C90.8333 123.027 92.0267 121.833 93.5 121.833C94.9733 121.833 96.1667 123.027 96.1667 124.5C96.1667 125.973 94.9733 127.167 93.5 127.167ZM98.7307 120.23C98.7307 120.76 98.3 121.19 97.7707 121.19C97.2407 121.19 96.8107 120.759 96.8107 120.23C96.8107 119.701 97.2413 119.271 97.7707 119.271C98.2993 119.27 98.7307 119.701 98.7307 120.23Z" fill="#191919"/>
</g>
<path d="M86 194.5C86.2761 194.5 86.5 194.276 86.5 194C86.5 193.724 86.2761 193.5 86 193.5V194.5ZM83.375 193.5C83.0989 193.5 82.875 193.724 82.875 194C82.875 194.276 83.0989 194.5 83.375 194.5V193.5ZM78.125 194.5C78.4011 194.5 78.625 194.276 78.625 194C78.625 193.724 78.4011 193.5 78.125 193.5V194.5ZM72.875 193.5C72.5989 193.5 72.375 193.724 72.375 194C72.375 194.276 72.5989 194.5 72.875 194.5V193.5ZM67.625 194.5C67.9011 194.5 68.125 194.276 68.125 194C68.125 193.724 67.9011 193.5 67.625 193.5V194.5ZM63.1454 193.319C62.8745 193.266 62.6115 193.442 62.5579 193.713C62.5043 193.984 62.6805 194.247 62.9513 194.3L63.1454 193.319ZM59.1657 192.731C59.3951 192.885 59.7057 192.823 59.8593 192.594C60.013 192.364 59.9515 192.054 59.722 191.9L59.1657 192.731ZM57.0998 189.278C56.9462 189.049 56.6357 188.987 56.4062 189.141C56.1767 189.294 56.1152 189.605 56.2689 189.834L57.0998 189.278ZM54.6998 186.049C54.7534 186.32 55.0165 186.496 55.2874 186.442C55.5583 186.389 55.7344 186.125 55.6808 185.855L54.6998 186.049ZM55.5 181.8C55.5 181.524 55.2761 181.3 55 181.3C54.7239 181.3 54.5 181.524 54.5 181.8H55.5ZM54.5 177.4C54.5 177.676 54.7239 177.9 55 177.9C55.2761 177.9 55.5 177.676 55.5 177.4H54.5ZM55.5 173C55.5 172.724 55.2761 172.5 55 172.5C54.7239 172.5 54.5 172.724 54.5 173H55.5ZM54.5 168.6C54.5 168.876 54.7239 169.1 55 169.1C55.2761 169.1 55.5 168.876 55.5 168.6H54.5ZM55.5 164.2C55.5 163.924 55.2761 163.7 55 163.7C54.7239 163.7 54.5 163.924 54.5 164.2H55.5ZM54.5 159.8C54.5 160.076 54.7239 160.3 55 160.3C55.2761 160.3 55.5 160.076 55.5 159.8H54.5ZM55.5 155.4C55.5 155.124 55.2761 154.9 55 154.9C54.7239 154.9 54.5 155.124 54.5 155.4H55.5ZM54.5 151C54.5 151.276 54.7239 151.5 55 151.5C55.2761 151.5 55.5 151.276 55.5 151H54.5ZM55.5 146.6C55.5 146.324 55.2761 146.1 55 146.1C54.7239 146.1 54.5 146.324 54.5 146.6H55.5ZM54.5 142.2C54.5 142.476 54.7239 142.7 55 142.7C55.2761 142.7 55.5 142.476 55.5 142.2H54.5ZM55.5 137.8C55.5 137.524 55.2761 137.3 55 137.3C54.7239 137.3 54.5 137.524 54.5 137.8H55.5ZM54.5 133.4C54.5 133.676 54.7239 133.9 55 133.9C55.2761 133.9 55.5 133.676 55.5 133.4H54.5ZM55.5 129C55.5 128.724 55.2761 128.5 55 128.5C54.7239 128.5 54.5 128.724 54.5 129H55.5ZM54.5 124.6C54.5 124.876 54.7239 125.1 55 125.1C55.2761 125.1 55.5 124.876 55.5 124.6H54.5ZM55.5 120.2C55.5 119.924 55.2761 119.7 55 119.7C54.7239 119.7 54.5 119.924 54.5 120.2H55.5ZM54.5 115.8C54.5 116.076 54.7239 116.3 55 116.3C55.2761 116.3 55.5 116.076 55.5 115.8H54.5ZM55.5 111.4C55.5 111.124 55.2761 110.9 55 110.9C54.7239 110.9 54.5 111.124 54.5 111.4H55.5ZM54.5 107C54.5 107.276 54.7239 107.5 55 107.5C55.2761 107.5 55.5 107.276 55.5 107H54.5ZM55.5 102.6C55.5 102.324 55.2761 102.1 55 102.1C54.7239 102.1 54.5 102.324 54.5 102.6H55.5ZM54.5 98.2C54.5 98.4761 54.7239 98.7 55 98.7C55.2761 98.7 55.5 98.4761 55.5 98.2H54.5ZM55.6808 94.1454C55.7344 93.8745 55.5583 93.6115 55.2874 93.5579C55.0165 93.5043 54.7534 93.6805 54.6998 93.9513L55.6808 94.1454ZM56.2689 90.1657C56.1152 90.3951 56.1767 90.7057 56.4062 90.8593C56.6357 91.013 56.9462 90.9515 57.0998 90.722L56.2689 90.1657ZM59.722 88.0998C59.9515 87.9462 60.013 87.6357 59.8593 87.4062C59.7057 87.1767 59.3951 87.1152 59.1657 87.2689L59.722 88.0998ZM62.9513 85.6998C62.6805 85.7534 62.5043 86.0165 62.5579 86.2874C62.6115 86.5583 62.8745 86.7344 63.1454 86.6808L62.9513 85.6998ZM67.1667 86.5C67.4428 86.5 67.6667 86.2761 67.6667 86C67.6667 85.7239 67.4428 85.5 67.1667 85.5V86.5ZM71.5 85.5C71.2239 85.5 71 85.7239 71 86C71 86.2761 71.2239 86.5 71.5 86.5V85.5ZM75.8333 86.5C76.1095 86.5 76.3333 86.2761 76.3333 86C76.3333 85.7239 76.1095 85.5 75.8333 85.5V86.5ZM80.1667 85.5C79.8905 85.5 79.6667 85.7239 79.6667 86C79.6667 86.2761 79.8905 86.5 80.1667 86.5V85.5ZM84.5 86.5C84.7761 86.5 85 86.2761 85 86C85 85.7239 84.7761 85.5 84.5 85.5V86.5ZM88.8333 85.5C88.5572 85.5 88.3333 85.7239 88.3333 86C88.3333 86.2761 88.5572 86.5 88.8333 86.5V85.5ZM93.0487 86.3002C93.3195 86.2466 93.4957 85.9835 93.4421 85.7126C93.3885 85.4417 93.1255 85.2656 92.8546 85.3192L93.0487 86.3002ZM96.278 83.9002C96.0485 84.0538 95.987 84.3643 96.1407 84.5938C96.2943 84.8233 96.6049 84.8848 96.8343 84.7311L96.278 83.9002ZM99.7311 81.8343C99.8848 81.6049 99.8233 81.2943 99.5938 81.1407C99.3643 80.987 99.0538 81.0485 98.9002 81.278L99.7311 81.8343ZM100.319 77.8546C100.266 78.1255 100.442 78.3885 100.713 78.4421C100.984 78.4957 101.247 78.3195 101.3 78.0487L100.319 77.8546ZM101.5 73.6C101.5 73.3239 101.276 73.1 101 73.1C100.724 73.1 100.5 73.3239 100.5 73.6H101.5ZM100.5 68.8C100.5 69.0761 100.724 69.3 101 69.3C101.276 69.3 101.5 69.0761 101.5 68.8H100.5ZM101.5 64C101.5 63.7239 101.276 63.5 101 63.5C100.724 63.5 100.5 63.7239 100.5 64H101.5ZM100.5 59.2C100.5 59.4761 100.724 59.7 101 59.7C101.276 59.7 101.5 59.4761 101.5 59.2H100.5ZM101.5 54.4C101.5 54.1239 101.276 53.9 101 53.9C100.724 53.9 100.5 54.1239 100.5 54.4H101.5ZM100.5 49.6C100.5 49.8761 100.724 50.1 101 50.1C101.276 50.1 101.5 49.8761 101.5 49.6H100.5ZM101.5 44.8C101.5 44.5239 101.276 44.3 101 44.3C100.724 44.3 100.5 44.5239 100.5 44.8H101.5ZM100.5 40C100.5 40.2761 100.724 40.5 101 40.5C101.276 40.5 101.5 40.2761 101.5 40H100.5ZM101.5 35.2C101.5 34.9239 101.276 34.7 101 34.7C100.724 34.7 100.5 34.9239 100.5 35.2H101.5ZM100.5 30.4C100.5 30.6762 100.724 30.9 101 30.9C101.276 30.9 101.5 30.6762 101.5 30.4H100.5ZM101.681 26.1454C101.734 25.8745 101.558 25.6115 101.287 25.5579C101.016 25.5043 100.753 25.6805 100.7 25.9513L101.681 26.1454ZM102.269 22.1657C102.115 22.3951 102.177 22.7057 102.406 22.8593C102.636 23.013 102.946 22.9515 103.1 22.722L102.269 22.1657ZM105.722 20.0998C105.951 19.9462 106.013 19.6357 105.859 19.4062C105.706 19.1767 105.395 19.1152 105.166 19.2689L105.722 20.0998ZM108.951 17.6998C108.68 17.7534 108.504 18.0165 108.558 18.2874C108.611 18.5583 108.875 18.7344 109.145 18.6808L108.951 17.6998ZM113.125 18.5C113.401 18.5 113.625 18.2761 113.625 18C113.625 17.7239 113.401 17.5 113.125 17.5V18.5ZM117.375 17.5C117.099 17.5 116.875 17.7239 116.875 18C116.875 18.2761 117.099 18.5 117.375 18.5V17.5ZM121.625 18.5C121.901 18.5 122.125 18.2761 122.125 18C122.125 17.7239 121.901 17.5 121.625 17.5V18.5ZM125.875 17.5C125.599 17.5 125.375 17.7239 125.375 18C125.375 18.2761 125.599 18.5 125.875 18.5V17.5ZM130.125 18.5C130.401 18.5 130.625 18.2761 130.625 18C130.625 17.7239 130.401 17.5 130.125 17.5V18.5ZM134.375 17.5C134.099 17.5 133.875 17.7239 133.875 18C133.875 18.2761 134.099 18.5 134.375 18.5V17.5ZM86 193.5H83.375V194.5H86V193.5ZM78.125 193.5H72.875V194.5H78.125V193.5ZM67.625 193.5H65V194.5H67.625V193.5ZM65 193.5C64.3649 193.5 63.7448 193.438 63.1454 193.319L62.9513 194.3C63.6143 194.431 64.2994 194.5 65 194.5V193.5ZM59.722 191.9C58.6858 191.206 57.7936 190.314 57.0998 189.278L56.2689 189.834C57.0353 190.979 58.0209 191.965 59.1657 192.731L59.722 191.9ZM55.6808 185.855C55.5623 185.255 55.5 184.635 55.5 184H54.5C54.5 184.701 54.5687 185.386 54.6998 186.049L55.6808 185.855ZM55.5 184V181.8H54.5V184H55.5ZM55.5 177.4V173H54.5V177.4H55.5ZM55.5 168.6V164.2H54.5V168.6H55.5ZM55.5 159.8V155.4H54.5V159.8H55.5ZM55.5 151V146.6H54.5V151H55.5ZM55.5 142.2V137.8H54.5V142.2H55.5ZM55.5 133.4V129H54.5V133.4H55.5ZM55.5 124.6V120.2H54.5V124.6H55.5ZM55.5 115.8V111.4H54.5V115.8H55.5ZM55.5 107V102.6H54.5V107H55.5ZM55.5 98.2V96H54.5V98.2H55.5ZM55.5 96C55.5 95.3649 55.5623 94.7448 55.6808 94.1454L54.6998 93.9513C54.5687 94.6143 54.5 95.2994 54.5 96H55.5ZM57.0998 90.722C57.7936 89.6858 58.6858 88.7935 59.722 88.0998L59.1657 87.2689C58.0209 88.0353 57.0353 89.0209 56.2689 90.1657L57.0998 90.722ZM63.1454 86.6808C63.7448 86.5622 64.3649 86.5 65 86.5V85.5C64.2994 85.5 63.6143 85.5687 62.9513 85.6998L63.1454 86.6808ZM65 86.5H67.1667V85.5H65V86.5ZM71.5 86.5H75.8333V85.5H71.5V86.5ZM80.1667 86.5H84.5V85.5H80.1667V86.5ZM88.8333 86.5H91V85.5H88.8333V86.5ZM91 86.5C91.7006 86.5 92.3857 86.4313 93.0487 86.3002L92.8546 85.3192C92.2552 85.4378 91.6351 85.5 91 85.5V86.5ZM96.8343 84.7311C97.9791 83.9647 98.9647 82.9791 99.7311 81.8343L98.9002 81.278C98.2064 82.3142 97.3142 83.2065 96.278 83.9002L96.8343 84.7311ZM101.3 78.0487C101.431 77.3857 101.5 76.7006 101.5 76H100.5C100.5 76.6351 100.438 77.2552 100.319 77.8546L101.3 78.0487ZM101.5 76V73.6H100.5V76H101.5ZM101.5 68.8V64H100.5V68.8H101.5ZM101.5 59.2V54.4H100.5V59.2H101.5ZM101.5 49.6V44.8H100.5V49.6H101.5ZM101.5 40V35.2H100.5V40H101.5ZM101.5 30.4V28H100.5V30.4H101.5ZM101.5 28C101.5 27.3649 101.562 26.7448 101.681 26.1454L100.7 25.9513C100.569 26.6143 100.5 27.2994 100.5 28H101.5ZM103.1 22.722C103.794 21.6858 104.686 20.7936 105.722 20.0998L105.166 19.2689C104.021 20.0353 103.035 21.0209 102.269 22.1657L103.1 22.722ZM109.145 18.6808C109.745 18.5623 110.365 18.5 111 18.5V17.5C110.299 17.5 109.614 17.5687 108.951 17.6998L109.145 18.6808ZM111 18.5H113.125V17.5H111V18.5ZM117.375 18.5H121.625V17.5H117.375V18.5ZM125.875 18.5H130.125V17.5H125.875V18.5ZM134.375 18.5H136.5V17.5H134.375V18.5Z" fill="#191919"/>
<path d="M102 194.5C102.276 194.5 102.5 194.276 102.5 194C102.5 193.724 102.276 193.5 102 193.5V194.5ZM54.5 54.2C54.5 54.4761 54.7239 54.7 55 54.7C55.2761 54.7 55.5 54.4761 55.5 54.2H54.5ZM55.5 58.6C55.5 58.3239 55.2761 58.1 55 58.1C54.7239 58.1 54.5 58.3239 54.5 58.6H55.5ZM54.5 63C54.5 63.2761 54.7239 63.5 55 63.5C55.2761 63.5 55.5 63.2761 55.5 63H54.5ZM55.5 67.4C55.5 67.1239 55.2761 66.9 55 66.9C54.7239 66.9 54.5 67.1239 54.5 67.4H55.5ZM54.5 71.8C54.5 72.0761 54.7239 72.3 55 72.3C55.2761 72.3 55.5 72.0761 55.5 71.8H54.5ZM55.5 76.2C55.5 75.9239 55.2761 75.7 55 75.7C54.7239 75.7 54.5 75.9239 54.5 76.2H55.5ZM54.5 80.6C54.5 80.8761 54.7239 81.1 55 81.1C55.2761 81.1 55.5 80.8761 55.5 80.6H54.5ZM55.5 85C55.5 84.7239 55.2761 84.5 55 84.5C54.7239 84.5 54.5 84.7239 54.5 85H55.5ZM54.5 89.4C54.5 89.6761 54.7239 89.9 55 89.9C55.2761 89.9 55.5 89.6761 55.5 89.4H54.5ZM55.5 93.8C55.5 93.5239 55.2761 93.3 55 93.3C54.7239 93.3 54.5 93.5239 54.5 93.8H55.5ZM54.5 98.2C54.5 98.4761 54.7239 98.7 55 98.7C55.2761 98.7 55.5 98.4761 55.5 98.2H54.5ZM55.5 102.6C55.5 102.324 55.2761 102.1 55 102.1C54.7239 102.1 54.5 102.324 54.5 102.6H55.5ZM54.5 107C54.5 107.276 54.7239 107.5 55 107.5C55.2761 107.5 55.5 107.276 55.5 107H54.5ZM55.5 111.4C55.5 111.124 55.2761 110.9 55 110.9C54.7239 110.9 54.5 111.124 54.5 111.4H55.5ZM54.5 115.8C54.5 116.076 54.7239 116.3 55 116.3C55.2761 116.3 55.5 116.076 55.5 115.8H54.5ZM55.5 120.2C55.5 119.924 55.2761 119.7 55 119.7C54.7239 119.7 54.5 119.924 54.5 120.2H55.5ZM54.5 124.6C54.5 124.876 54.7239 125.1 55 125.1C55.2761 125.1 55.5 124.876 55.5 124.6H54.5ZM55.5 129C55.5 128.724 55.2761 128.5 55 128.5C54.7239 128.5 54.5 128.724 54.5 129H55.5ZM54.5 133.4C54.5 133.676 54.7239 133.9 55 133.9C55.2761 133.9 55.5 133.676 55.5 133.4H54.5ZM55.5 137.8C55.5 137.524 55.2761 137.3 55 137.3C54.7239 137.3 54.5 137.524 54.5 137.8H55.5ZM54.5 142.2C54.5 142.476 54.7239 142.7 55 142.7C55.2761 142.7 55.5 142.476 55.5 142.2H54.5ZM55.5 146.6C55.5 146.324 55.2761 146.1 55 146.1C54.7239 146.1 54.5 146.324 54.5 146.6H55.5ZM54.5 151C54.5 151.276 54.7239 151.5 55 151.5C55.2761 151.5 55.5 151.276 55.5 151H54.5ZM55.5 155.4C55.5 155.124 55.2761 154.9 55 154.9C54.7239 154.9 54.5 155.124 54.5 155.4H55.5ZM54.5 159.8C54.5 160.076 54.7239 160.3 55 160.3C55.2761 160.3 55.5 160.076 55.5 159.8H54.5ZM55.5 164.2C55.5 163.924 55.2761 163.7 55 163.7C54.7239 163.7 54.5 163.924 54.5 164.2H55.5ZM54.5 168.6C54.5 168.876 54.7239 169.1 55 169.1C55.2761 169.1 55.5 168.876 55.5 168.6H54.5ZM55.5 173C55.5 172.724 55.2761 172.5 55 172.5C54.7239 172.5 54.5 172.724 54.5 173H55.5ZM54.5 177.4C54.5 177.676 54.7239 177.9 55 177.9C55.2761 177.9 55.5 177.676 55.5 177.4H54.5ZM55.5 181.8C55.5 181.524 55.2761 181.3 55 181.3C54.7239 181.3 54.5 181.524 54.5 181.8H55.5ZM54.6998 186.049C54.7534 186.32 55.0165 186.496 55.2874 186.442C55.5583 186.389 55.7344 186.125 55.6808 185.855L54.6998 186.049ZM57.0998 189.278C56.9462 189.049 56.6357 188.987 56.4062 189.141C56.1767 189.294 56.1152 189.605 56.2689 189.834L57.0998 189.278ZM59.1657 192.731C59.3951 192.885 59.7057 192.823 59.8593 192.594C60.013 192.364 59.9515 192.054 59.722 191.9L59.1657 192.731ZM63.1454 193.319C62.8745 193.266 62.6115 193.442 62.5579 193.713C62.5043 193.984 62.6805 194.247 62.9513 194.3L63.1454 193.319ZM67.3125 194.5C67.5886 194.5 67.8125 194.276 67.8125 194C67.8125 193.724 67.5886 193.5 67.3125 193.5V194.5ZM71.9375 193.5C71.6614 193.5 71.4375 193.724 71.4375 194C71.4375 194.276 71.6614 194.5 71.9375 194.5V193.5ZM76.5625 194.5C76.8386 194.5 77.0625 194.276 77.0625 194C77.0625 193.724 76.8386 193.5 76.5625 193.5V194.5ZM81.1875 193.5C80.9114 193.5 80.6875 193.724 80.6875 194C80.6875 194.276 80.9114 194.5 81.1875 194.5V193.5ZM85.8125 194.5C86.0886 194.5 86.3125 194.276 86.3125 194C86.3125 193.724 86.0886 193.5 85.8125 193.5V194.5ZM90.4375 193.5C90.1614 193.5 89.9375 193.724 89.9375 194C89.9375 194.276 90.1614 194.5 90.4375 194.5V193.5ZM95.0625 194.5C95.3386 194.5 95.5625 194.276 95.5625 194C95.5625 193.724 95.3386 193.5 95.0625 193.5V194.5ZM99.6875 193.5C99.4114 193.5 99.1875 193.724 99.1875 194C99.1875 194.276 99.4114 194.5 99.6875 194.5V193.5ZM54.5 52V54.2H55.5V52H54.5ZM54.5 58.6V63H55.5V58.6H54.5ZM54.5 67.4V71.8H55.5V67.4H54.5ZM54.5 76.2V80.6H55.5V76.2H54.5ZM54.5 85V89.4H55.5V85H54.5ZM54.5 93.8V98.2H55.5V93.8H54.5ZM54.5 102.6V107H55.5V102.6H54.5ZM54.5 111.4V115.8H55.5V111.4H54.5ZM54.5 120.2V124.6H55.5V120.2H54.5ZM54.5 129V133.4H55.5V129H54.5ZM54.5 137.8V142.2H55.5V137.8H54.5ZM54.5 146.6V151H55.5V146.6H54.5ZM54.5 155.4V159.8H55.5V155.4H54.5ZM54.5 164.2V168.6H55.5V164.2H54.5ZM54.5 173V177.4H55.5V173H54.5ZM54.5 181.8V184H55.5V181.8H54.5ZM54.5 184C54.5 184.701 54.5687 185.386 54.6998 186.049L55.6808 185.855C55.5623 185.255 55.5 184.635 55.5 184H54.5ZM56.2689 189.834C57.0353 190.979 58.0209 191.965 59.1657 192.731L59.722 191.9C58.6858 191.206 57.7936 190.314 57.0998 189.278L56.2689 189.834ZM62.9513 194.3C63.6143 194.431 64.2994 194.5 65 194.5V193.5C64.3649 193.5 63.7448 193.438 63.1454 193.319L62.9513 194.3ZM65 194.5H67.3125V193.5H65V194.5ZM71.9375 194.5H76.5625V193.5H71.9375V194.5ZM81.1875 194.5H85.8125V193.5H81.1875V194.5ZM90.4375 194.5H95.0625V193.5H90.4375V194.5ZM99.6875 194.5H102V193.5H99.6875V194.5Z" fill="#191919"/>
<path d="M93 194.5C93.2761 194.5 93.5 194.276 93.5 194C93.5 193.724 93.2761 193.5 93 193.5V194.5ZM16.5 94.3C16.5 94.5761 16.7239 94.8 17 94.8C17.2761 94.8 17.5 94.5761 17.5 94.3H16.5ZM17.5 98.9C17.5 98.6239 17.2761 98.4 17 98.4C16.7239 98.4 16.5 98.6239 16.5 98.9H17.5ZM16.5 103.5C16.5 103.776 16.7239 104 17 104C17.2761 104 17.5 103.776 17.5 103.5H16.5ZM17.5 108.1C17.5 107.824 17.2761 107.6 17 107.6C16.7239 107.6 16.5 107.824 16.5 108.1H17.5ZM16.5 112.7C16.5 112.976 16.7239 113.2 17 113.2C17.2761 113.2 17.5 112.976 17.5 112.7H16.5ZM17.5 117.3C17.5 117.024 17.2761 116.8 17 116.8C16.7239 116.8 16.5 117.024 16.5 117.3H17.5ZM16.5 121.9C16.5 122.176 16.7239 122.4 17 122.4C17.2761 122.4 17.5 122.176 17.5 121.9H16.5ZM17.5 126.5C17.5 126.224 17.2761 126 17 126C16.7239 126 16.5 126.224 16.5 126.5H17.5ZM16.5 131.1C16.5 131.376 16.7239 131.6 17 131.6C17.2761 131.6 17.5 131.376 17.5 131.1H16.5ZM17.5 135.7C17.5 135.424 17.2761 135.2 17 135.2C16.7239 135.2 16.5 135.424 16.5 135.7H17.5ZM16.5 140.3C16.5 140.576 16.7239 140.8 17 140.8C17.2761 140.8 17.5 140.576 17.5 140.3H16.5ZM17.5 144.9C17.5 144.624 17.2761 144.4 17 144.4C16.7239 144.4 16.5 144.624 16.5 144.9H17.5ZM16.5 149.5C16.5 149.776 16.7239 150 17 150C17.2761 150 17.5 149.776 17.5 149.5H16.5ZM17.5 154.1C17.5 153.824 17.2761 153.6 17 153.6C16.7239 153.6 16.5 153.824 16.5 154.1H17.5ZM16.5 158.7C16.5 158.976 16.7239 159.2 17 159.2C17.2761 159.2 17.5 158.976 17.5 158.7H16.5ZM17.5 163.3C17.5 163.024 17.2761 162.8 17 162.8C16.7239 162.8 16.5 163.024 16.5 163.3H17.5ZM16.5 167.9C16.5 168.176 16.7239 168.4 17 168.4C17.2761 168.4 17.5 168.176 17.5 167.9H16.5ZM17.5 172.5C17.5 172.224 17.2761 172 17 172C16.7239 172 16.5 172.224 16.5 172.5H17.5ZM16.5 177.1C16.5 177.376 16.7239 177.6 17 177.6C17.2761 177.6 17.5 177.376 17.5 177.1H16.5ZM17.5 181.7C17.5 181.424 17.2761 181.2 17 181.2C16.7239 181.2 16.5 181.424 16.5 181.7H17.5ZM16.6998 186.049C16.7534 186.32 17.0165 186.496 17.2874 186.442C17.5583 186.389 17.7344 186.125 17.6808 185.855L16.6998 186.049ZM19.0998 189.278C18.9462 189.049 18.6357 188.987 18.4062 189.141C18.1767 189.294 18.1152 189.605 18.2689 189.834L19.0998 189.278ZM21.1657 192.731C21.3951 192.885 21.7057 192.823 21.8593 192.594C22.0129 192.364 21.9515 192.054 21.722 191.9L21.1657 192.731ZM25.1454 193.319C24.8745 193.266 24.6115 193.442 24.5579 193.713C24.5043 193.984 24.6805 194.247 24.9513 194.3L25.1454 193.319ZM29.3571 194.5C29.6333 194.5 29.8571 194.276 29.8571 194C29.8571 193.724 29.6333 193.5 29.3571 193.5V194.5ZM34.0714 193.5C33.7953 193.5 33.5714 193.724 33.5714 194C33.5714 194.276 33.7953 194.5 34.0714 194.5V193.5ZM38.7857 194.5C39.0619 194.5 39.2857 194.276 39.2857 194C39.2857 193.724 39.0619 193.5 38.7857 193.5V194.5ZM43.5 193.5C43.2239 193.5 43 193.724 43 194C43 194.276 43.2239 194.5 43.5 194.5V193.5ZM48.2143 194.5C48.4904 194.5 48.7143 194.276 48.7143 194C48.7143 193.724 48.4904 193.5 48.2143 193.5V194.5ZM52.9286 193.5C52.6524 193.5 52.4286 193.724 52.4286 194C52.4286 194.276 52.6524 194.5 52.9286 194.5V193.5ZM57.6429 194.5C57.919 194.5 58.1429 194.276 58.1429 194C58.1429 193.724 57.919 193.5 57.6429 193.5V194.5ZM62.3571 193.5C62.081 193.5 61.8571 193.724 61.8571 194C61.8571 194.276 62.081 194.5 62.3571 194.5V193.5ZM67.0714 194.5C67.3476 194.5 67.5714 194.276 67.5714 194C67.5714 193.724 67.3476 193.5 67.0714 193.5V194.5ZM71.7857 193.5C71.5096 193.5 71.2857 193.724 71.2857 194C71.2857 194.276 71.5096 194.5 71.7857 194.5V193.5ZM76.5 194.5C76.7761 194.5 77 194.276 77 194C77 193.724 76.7761 193.5 76.5 193.5V194.5ZM81.2143 193.5C80.9382 193.5 80.7143 193.724 80.7143 194C80.7143 194.276 80.9382 194.5 81.2143 194.5V193.5ZM85.9286 194.5C86.2047 194.5 86.4286 194.276 86.4286 194C86.4286 193.724 86.2047 193.5 85.9286 193.5V194.5ZM90.6429 193.5C90.3667 193.5 90.1429 193.724 90.1429 194C90.1429 194.276 90.3667 194.5 90.6429 194.5V193.5ZM16.5 92V94.3H17.5V92H16.5ZM16.5 98.9V103.5H17.5V98.9H16.5ZM16.5 108.1V112.7H17.5V108.1H16.5ZM16.5 117.3V121.9H17.5V117.3H16.5ZM16.5 126.5V131.1H17.5V126.5H16.5ZM16.5 135.7V140.3H17.5V135.7H16.5ZM16.5 144.9V149.5H17.5V144.9H16.5ZM16.5 154.1V158.7H17.5V154.1H16.5ZM16.5 163.3V167.9H17.5V163.3H16.5ZM16.5 172.5V177.1H17.5V172.5H16.5ZM16.5 181.7V184H17.5V181.7H16.5ZM16.5 184C16.5 184.701 16.5687 185.386 16.6998 186.049L17.6808 185.855C17.5623 185.255 17.5 184.635 17.5 184H16.5ZM18.2689 189.834C19.0353 190.979 20.0209 191.965 21.1657 192.731L21.722 191.9C20.6858 191.206 19.7936 190.314 19.0998 189.278L18.2689 189.834ZM24.9513 194.3C25.6143 194.431 26.2994 194.5 27 194.5V193.5C26.3649 193.5 25.7448 193.438 25.1454 193.319L24.9513 194.3ZM27 194.5H29.3571V193.5H27V194.5ZM34.0714 194.5H38.7857V193.5H34.0714V194.5ZM43.5 194.5H48.2143V193.5H43.5V194.5ZM52.9286 194.5H57.6429V193.5H52.9286V194.5ZM62.3571 194.5H67.0714V193.5H62.3571V194.5ZM71.7857 194.5H76.5V193.5H71.7857V194.5ZM81.2143 194.5H85.9286V193.5H81.2143V194.5ZM90.6429 194.5H93V193.5H90.6429V194.5Z" fill="#191919"/>
<circle cx="17.5" cy="84.5" r="17" fill="#FFFBA0" stroke="#191919"/>
<g clip-path="url(#clip1_1_597)">
<path d="M25.5 84.5486C25.5 80.1306 21.918 76.5486 17.5 76.5486C13.082 76.5486 9.5 80.1306 9.5 84.5486C9.5 88.5419 12.4253 91.8512 16.25 92.4513V86.8612H14.2187V84.5479H16.25V82.7866C16.25 80.7819 17.4447 79.6739 19.272 79.6739C20.1467 79.6739 21.0627 79.8306 21.0627 79.8306V81.7993H20.0533C19.0593 81.7993 18.7493 82.4159 18.7493 83.0486V84.5486H20.968L20.6133 86.8619H18.7493V92.4519C22.5747 91.8512 25.5 88.5413 25.5 84.5486Z" fill="#191919"/>
</g>
<circle cx="55.5" cy="42.5" r="17" fill="#FFFBA0" stroke="#191919"/>
<g clip-path="url(#clip2_1_597)">
<path d="M57.8121 50.486L62.6227 49.4453C62.6227 49.4453 60.8867 37.7033 60.8727 37.6253C60.8607 37.548 60.7967 37.4973 60.7321 37.4973C60.6674 37.4973 59.4461 37.4067 59.4461 37.4067C59.4461 37.4067 58.5961 36.5573 58.4867 36.466C58.4567 36.4413 58.4367 36.428 58.4061 36.4167L57.7967 50.486H57.8121ZM55.3941 42.0367C55.3941 42.0367 54.8541 41.754 54.2114 41.754C53.2467 41.754 53.2087 42.358 53.2087 42.5147C53.2087 43.336 55.3687 43.658 55.3687 45.6007C55.3687 47.1307 54.4087 48.1073 53.0981 48.1073C51.5287 48.1073 50.7381 47.1307 50.7381 47.1307L51.1687 45.74C51.1687 45.74 51.9987 46.4507 52.6887 46.4507C53.1387 46.4507 53.3387 46.0873 53.3387 45.8293C53.3387 44.75 51.5694 44.7 51.5694 42.9233C51.5467 41.432 52.6167 39.9793 54.7874 39.9793C55.6254 39.9793 56.0374 40.22 56.0374 40.22L55.4074 42.03L55.3941 42.0367ZM55.0341 35.0533C55.1247 35.0533 55.2147 35.0787 55.3041 35.1433C54.6481 35.4533 53.9281 36.236 53.6321 37.8047C53.1947 37.9467 52.7701 38.0747 52.3727 38.19C52.7187 37 53.5547 35.06 55.0341 35.06V35.0533ZM55.8574 37.0193V37.1093C55.3547 37.264 54.8021 37.432 54.2614 37.6C54.5721 36.4153 55.1501 35.8367 55.6514 35.6193C55.7801 35.9533 55.8574 36.4033 55.8574 37.0193ZM56.2167 35.53C56.6794 35.5793 56.9774 36.108 57.1694 36.7C56.9367 36.776 56.6794 36.854 56.3974 36.944V36.776C56.3974 36.2747 56.3334 35.862 56.2167 35.5287V35.53ZM58.2114 36.3893C58.1981 36.3893 58.1714 36.4033 58.1594 36.4033C58.1474 36.4033 57.9667 36.4533 57.6834 36.5433C57.4014 35.7213 56.8994 34.9633 56.0114 34.9633H55.9347C55.6774 34.6393 55.3667 34.5 55.0974 34.5C53.0267 34.5 52.0374 37.0847 51.7274 38.3973C50.9314 38.6407 50.3521 38.8213 50.2874 38.8467C49.8374 38.9887 49.8247 39.0013 49.7727 39.4267C49.7227 39.7347 48.5527 48.802 48.5527 48.802L57.5934 50.5L58.2114 36.3893Z" fill="#191919"/>
</g>
<circle cx="141.5" cy="17.5" r="17" fill="#FFFBA0" stroke="#191919"/>
<g clip-path="url(#clip3_1_597)">
<path d="M148.817 11.4989V23.498C148.822 24.5962 147.937 25.4911 146.839 25.4969C146.757 25.4974 146.675 25.4927 146.594 25.4831C145.575 25.3324 144.828 24.4459 144.853 23.4164V11.5803C144.829 10.5498 145.577 9.66287 146.597 9.51367C147.688 9.38601 148.676 10.1667 148.803 11.2575C148.813 11.3376 148.817 11.4182 148.817 11.4988V11.4989ZM136.345 21.5366C135.251 21.5366 134.363 22.4239 134.363 23.5183C134.363 24.6128 135.251 25.5001 136.345 25.5001C137.439 25.5001 138.327 24.6128 138.327 23.5183C138.327 22.4239 137.439 21.5366 136.345 21.5366ZM141.594 15.5301C141.582 15.5301 141.571 15.5301 141.559 15.5303C140.46 15.5905 139.606 16.5129 139.632 17.614V22.9371C139.632 24.3817 140.268 25.2587 141.199 25.4457C142.274 25.6635 143.321 24.9689 143.539 23.8944C143.566 23.7628 143.579 23.6289 143.578 23.4945V17.5222C143.58 16.4239 142.692 15.5321 141.594 15.5301Z" fill="#191919"/>
</g>
<path d="M190 141V184C190 189.523 185.523 194 180 194H159" stroke="#191919" stroke-linejoin="round" stroke-dasharray="4.5 4.5"/>
<circle cx="189.5" cy="136.5" r="17" fill="#FFFBA0" stroke="#191919"/>
<g clip-path="url(#clip4_1_597)">
<path d="M189.937 128.513C190.811 128.5 191.677 128.507 192.544 128.5C192.597 129.52 192.964 130.56 193.711 131.28C194.457 132.02 195.511 132.36 196.537 132.473V135.16C195.577 135.127 194.611 134.927 193.737 134.513C193.357 134.34 193.004 134.12 192.657 133.893C192.651 135.84 192.664 137.787 192.644 139.727C192.591 140.66 192.284 141.587 191.744 142.353C190.871 143.633 189.357 144.467 187.804 144.493C186.851 144.547 185.897 144.287 185.084 143.807C183.737 143.013 182.791 141.56 182.651 140C182.637 139.667 182.631 139.333 182.644 139.007C182.764 137.74 183.391 136.527 184.364 135.7C185.471 134.74 187.017 134.28 188.464 134.553C188.477 135.54 188.437 136.527 188.437 137.513C187.777 137.3 187.004 137.36 186.424 137.76C186.004 138.033 185.684 138.453 185.517 138.927C185.377 139.267 185.417 139.64 185.424 140C185.584 141.093 186.637 142.013 187.757 141.913C188.504 141.907 189.217 141.473 189.604 140.84C189.731 140.62 189.871 140.393 189.877 140.133C189.944 138.94 189.917 137.753 189.924 136.56C189.931 133.873 189.917 131.193 189.937 128.513Z" fill="#191919"/>
</g>
<path d="M266 72V184C266 189.523 261.523 194 256 194H144" stroke="#191919" stroke-linejoin="round" stroke-dasharray="4.5 4.5"/>
<circle cx="266.5" cy="63.5" r="17" fill="#FFFBA0" stroke="#191919"/>
<g clip-path="url(#clip5_1_597)">
<path fill-rule="evenodd" clip-rule="evenodd" d="M274.227 63.494C274.227 67.9045 270.652 71.4798 266.242 71.4798C261.831 71.4798 258.256 67.9045 258.256 63.494C258.256 59.0836 261.831 55.5083 266.242 55.5083C270.652 55.5083 274.227 59.0836 274.227 63.494ZM263.046 66.6535H267.004C267.065 66.6535 267.095 66.5778 267.065 66.5247L263.866 62.5625C263.821 62.5095 263.745 62.5322 263.73 62.5928L262.962 66.555C262.955 66.6081 262.993 66.6535 263.046 66.6535ZM262.971 60.6726H266.929C266.983 60.6726 267.021 60.7181 267.013 60.7711L266.246 64.7334C266.23 64.794 266.155 64.8167 266.109 64.7637L262.911 60.7938C262.873 60.7484 262.903 60.6726 262.971 60.6726ZM267.332 60.7332C267.339 60.7029 267.37 60.6726 267.408 60.6726H270.257C270.302 60.6726 270.348 60.7181 270.34 60.7635L269.808 63.3394C269.801 63.3772 269.77 63.4 269.732 63.4H269.649C268.243 63.4 267.127 62.1044 267.332 60.7332Z" fill="#191919"/>
</g>
<path d="M189 194.5C188.724 194.5 188.5 194.276 188.5 194C188.5 193.724 188.724 193.5 189 193.5V194.5ZM191.417 193.5C191.693 193.5 191.917 193.724 191.917 194C191.917 194.276 191.693 194.5 191.417 194.5V193.5ZM196.25 194.5C195.974 194.5 195.75 194.276 195.75 194C195.75 193.724 195.974 193.5 196.25 193.5V194.5ZM201.083 193.5C201.359 193.5 201.583 193.724 201.583 194C201.583 194.276 201.359 194.5 201.083 194.5V193.5ZM205.917 194.5C205.641 194.5 205.417 194.276 205.417 194C205.417 193.724 205.641 193.5 205.917 193.5V194.5ZM210.75 193.5C211.026 193.5 211.25 193.724 211.25 194C211.25 194.276 211.026 194.5 210.75 194.5V193.5ZM215.583 194.5C215.307 194.5 215.083 194.276 215.083 194C215.083 193.724 215.307 193.5 215.583 193.5V194.5ZM219.855 193.319C220.125 193.266 220.389 193.442 220.442 193.713C220.496 193.984 220.32 194.247 220.049 194.3L219.855 193.319ZM223.834 192.731C223.605 192.885 223.294 192.823 223.141 192.594C222.987 192.364 223.049 192.054 223.278 191.9L223.834 192.731ZM225.9 189.278C226.054 189.049 226.364 188.987 226.594 189.141C226.823 189.294 226.885 189.605 226.731 189.834L225.9 189.278ZM228.3 186.049C228.247 186.32 227.984 186.496 227.713 186.442C227.442 186.389 227.266 186.125 227.319 185.855L228.3 186.049ZM227.5 181.852C227.5 181.576 227.724 181.352 228 181.352C228.276 181.352 228.5 181.576 228.5 181.852H227.5ZM228.5 177.557C228.5 177.833 228.276 178.057 228 178.057C227.724 178.057 227.5 177.833 227.5 177.557H228.5ZM227.5 173.261C227.5 172.985 227.724 172.761 228 172.761C228.276 172.761 228.5 172.985 228.5 173.261H227.5ZM228.5 168.966C228.5 169.242 228.276 169.466 228 169.466C227.724 169.466 227.5 169.242 227.5 168.966H228.5ZM227.5 164.67C227.5 164.394 227.724 164.17 228 164.17C228.276 164.17 228.5 164.394 228.5 164.67H227.5ZM228.5 160.375C228.5 160.651 228.276 160.875 228 160.875C227.724 160.875 227.5 160.651 227.5 160.375H228.5ZM227.5 156.08C227.5 155.803 227.724 155.58 228 155.58C228.276 155.58 228.5 155.803 228.5 156.08H227.5ZM228.5 151.784C228.5 152.06 228.276 152.284 228 152.284C227.724 152.284 227.5 152.06 227.5 151.784H228.5ZM227.5 147.489C227.5 147.212 227.724 146.989 228 146.989C228.276 146.989 228.5 147.212 228.5 147.489H227.5ZM228.5 143.193C228.5 143.469 228.276 143.693 228 143.693C227.724 143.693 227.5 143.469 227.5 143.193H228.5ZM227.5 138.898C227.5 138.622 227.724 138.398 228 138.398C228.276 138.398 228.5 138.622 228.5 138.898H227.5ZM228.5 134.602C228.5 134.878 228.276 135.102 228 135.102C227.724 135.102 227.5 134.878 227.5 134.602H228.5ZM227.5 130.307C227.5 130.031 227.724 129.807 228 129.807C228.276 129.807 228.5 130.031 228.5 130.307H227.5ZM228.5 126.011C228.5 126.287 228.276 126.511 228 126.511C227.724 126.511 227.5 126.287 227.5 126.011H228.5ZM227.5 121.716C227.5 121.44 227.724 121.216 228 121.216C228.276 121.216 228.5 121.44 228.5 121.716H227.5ZM228.5 117.42C228.5 117.697 228.276 117.92 228 117.92C227.724 117.92 227.5 117.697 227.5 117.42H228.5ZM227.5 113.125C227.5 112.849 227.724 112.625 228 112.625C228.276 112.625 228.5 112.849 228.5 113.125H227.5ZM228.5 108.83C228.5 109.106 228.276 109.33 228 109.33C227.724 109.33 227.5 109.106 227.5 108.83H228.5ZM227.5 104.534C227.5 104.258 227.724 104.034 228 104.034C228.276 104.034 228.5 104.258 228.5 104.534H227.5ZM228.5 100.239C228.5 100.515 228.276 100.739 228 100.739C227.724 100.739 227.5 100.515 227.5 100.239H228.5ZM227.5 95.9432C227.5 95.667 227.724 95.4432 228 95.4432C228.276 95.4432 228.5 95.667 228.5 95.9432H227.5ZM228.5 91.6477C228.5 91.9239 228.276 92.1477 228 92.1477C227.724 92.1477 227.5 91.9239 227.5 91.6477H228.5ZM227.319 87.6454C227.266 87.3745 227.442 87.1115 227.713 87.0579C227.984 87.0043 228.247 87.1805 228.3 87.4513L227.319 87.6454ZM226.731 83.6657C226.885 83.8951 226.823 84.2057 226.594 84.3593C226.364 84.513 226.054 84.4515 225.9 84.222L226.731 83.6657ZM223.278 81.5998C223.049 81.4462 222.987 81.1357 223.141 80.9062C223.294 80.6767 223.605 80.6152 223.834 80.7689L223.278 81.5998ZM220.049 79.1998C220.32 79.2534 220.496 79.5165 220.442 79.7874C220.389 80.0583 220.125 80.2344 219.855 80.1808L220.049 79.1998ZM215.675 80C215.399 80 215.175 79.7761 215.175 79.5C215.175 79.2239 215.399 79 215.675 79V80ZM211.025 79C211.301 79 211.525 79.2239 211.525 79.5C211.525 79.7761 211.301 80 211.025 80V79ZM206.375 80C206.099 80 205.875 79.7761 205.875 79.5C205.875 79.2239 206.099 79 206.375 79V80ZM201.725 79C202.001 79 202.225 79.2239 202.225 79.5C202.225 79.7761 202.001 80 201.725 80V79ZM197.075 80C196.799 80 196.575 79.7761 196.575 79.5C196.575 79.2239 196.799 79 197.075 79V80ZM192.425 79C192.701 79 192.925 79.2239 192.925 79.5C192.925 79.7761 192.701 80 192.425 80V79ZM187.775 80C187.499 80 187.275 79.7761 187.275 79.5C187.275 79.2239 187.499 79 187.775 79V80ZM183.125 79C183.401 79 183.625 79.2239 183.625 79.5C183.625 79.7761 183.401 80 183.125 80V79ZM178.475 80C178.199 80 177.975 79.7761 177.975 79.5C177.975 79.2239 178.199 79 178.475 79V80ZM173.825 79C174.101 79 174.325 79.2239 174.325 79.5C174.325 79.7761 174.101 80 173.825 80V79ZM189 193.5H191.417V194.5H189V193.5ZM196.25 193.5H201.083V194.5H196.25V193.5ZM205.917 193.5H210.75V194.5H205.917V193.5ZM215.583 193.5H218V194.5H215.583V193.5ZM218 193.5C218.635 193.5 219.255 193.438 219.855 193.319L220.049 194.3C219.386 194.431 218.701 194.5 218 194.5V193.5ZM223.278 191.9C224.314 191.206 225.206 190.314 225.9 189.278L226.731 189.834C225.965 190.979 224.979 191.965 223.834 192.731L223.278 191.9ZM227.319 185.855C227.438 185.255 227.5 184.635 227.5 184H228.5C228.5 184.701 228.431 185.386 228.3 186.049L227.319 185.855ZM227.5 184V181.852H228.5V184H227.5ZM227.5 177.557V173.261H228.5V177.557H227.5ZM227.5 168.966V164.67H228.5V168.966H227.5ZM227.5 160.375V156.08H228.5V160.375H227.5ZM227.5 151.784V147.489H228.5V151.784H227.5ZM227.5 143.193V138.898H228.5V143.193H227.5ZM227.5 134.602V130.307H228.5V134.602H227.5ZM227.5 126.011V121.716H228.5V126.011H227.5ZM227.5 117.42V113.125H228.5V117.42H227.5ZM227.5 108.83V104.534H228.5V108.83H227.5ZM227.5 100.239V95.9432H228.5V100.239H227.5ZM227.5 91.6477V89.5H228.5V91.6477H227.5ZM227.5 89.5C227.5 88.8649 227.438 88.2448 227.319 87.6454L228.3 87.4513C228.431 88.1143 228.5 88.7994 228.5 89.5H227.5ZM225.9 84.222C225.206 83.1858 224.314 82.2936 223.278 81.5998L223.834 80.7689C224.979 81.5353 225.965 82.5209 226.731 83.6657L225.9 84.222ZM219.855 80.1808C219.255 80.0623 218.635 80 218 80V79C218.701 79 219.386 79.0687 220.049 79.1998L219.855 80.1808ZM218 80H215.675V79H218V80ZM211.025 80H206.375V79H211.025V80ZM201.725 80H197.075V79H201.725V80ZM192.425 80H187.775V79H192.425V80ZM183.125 80H178.475V79H183.125V80ZM173.825 80H171.5V79H173.825V80Z" fill="#191919"/>
<path d="M227.5 114C227.5 113.724 227.724 113.5 228 113.5C228.276 113.5 228.5 113.724 228.5 114H227.5ZM228.5 91.5C228.5 91.7761 228.276 92 228 92C227.724 92 227.5 91.7761 227.5 91.5H228.5ZM228.5 34.125C228.5 34.4011 228.276 34.625 228 34.625C227.724 34.625 227.5 34.4011 227.5 34.125H228.5ZM227.5 38.375C227.5 38.0989 227.724 37.875 228 37.875C228.276 37.875 228.5 38.0989 228.5 38.375H227.5ZM228.5 42.625C228.5 42.9011 228.276 43.125 228 43.125C227.724 43.125 227.5 42.9011 227.5 42.625H228.5ZM227.5 46.875C227.5 46.5989 227.724 46.375 228 46.375C228.276 46.375 228.5 46.5989 228.5 46.875H227.5ZM228.5 51.125C228.5 51.4011 228.276 51.625 228 51.625C227.724 51.625 227.5 51.4011 227.5 51.125H228.5ZM227.5 55.375C227.5 55.0989 227.724 54.875 228 54.875C228.276 54.875 228.5 55.0989 228.5 55.375H227.5ZM228.5 59.625C228.5 59.9011 228.276 60.125 228 60.125C227.724 60.125 227.5 59.9011 227.5 59.625H228.5ZM227.5 63.875C227.5 63.5989 227.724 63.375 228 63.375C228.276 63.375 228.5 63.5989 228.5 63.875H227.5ZM228.5 68.125C228.5 68.4011 228.276 68.625 228 68.625C227.724 68.625 227.5 68.4011 227.5 68.125H228.5ZM227.5 72.375C227.5 72.0989 227.724 71.875 228 71.875C228.276 71.875 228.5 72.0989 228.5 72.375H227.5ZM228.5 76.625C228.5 76.9011 228.276 77.125 228 77.125C227.724 77.125 227.5 76.9011 227.5 76.625H228.5ZM227.5 80.875C227.5 80.5989 227.724 80.375 228 80.375C228.276 80.375 228.5 80.5989 228.5 80.875H227.5ZM228.5 85.125C228.5 85.4011 228.276 85.625 228 85.625C227.724 85.625 227.5 85.4011 227.5 85.125H228.5ZM227.5 89.375C227.5 89.0989 227.724 88.875 228 88.875C228.276 88.875 228.5 89.0989 228.5 89.375H227.5ZM228.5 116.188C228.5 116.464 228.276 116.688 228 116.688C227.724 116.688 227.5 116.464 227.5 116.188H228.5ZM227.5 120.562C227.5 120.286 227.724 120.062 228 120.062C228.276 120.062 228.5 120.286 228.5 120.562H227.5ZM228.5 124.938C228.5 125.214 228.276 125.438 228 125.438C227.724 125.438 227.5 125.214 227.5 124.938H228.5ZM227.5 129.312C227.5 129.036 227.724 128.812 228 128.812C228.276 128.812 228.5 129.036 228.5 129.312H227.5ZM228.5 133.688C228.5 133.964 228.276 134.188 228 134.188C227.724 134.188 227.5 133.964 227.5 133.688H228.5ZM227.5 138.062C227.5 137.786 227.724 137.562 228 137.562C228.276 137.562 228.5 137.786 228.5 138.062H227.5ZM228.5 142.438C228.5 142.714 228.276 142.938 228 142.938C227.724 142.938 227.5 142.714 227.5 142.438H228.5ZM227.5 146.812C227.5 146.536 227.724 146.312 228 146.312C228.276 146.312 228.5 146.536 228.5 146.812H227.5ZM228.5 151.188C228.5 151.464 228.276 151.688 228 151.688C227.724 151.688 227.5 151.464 227.5 151.188H228.5ZM227.5 155.562C227.5 155.286 227.724 155.062 228 155.062C228.276 155.062 228.5 155.286 228.5 155.562H227.5ZM228.5 159.938C228.5 160.214 228.276 160.438 228 160.438C227.724 160.438 227.5 160.214 227.5 159.938H228.5ZM227.5 164.312C227.5 164.036 227.724 163.812 228 163.812C228.276 163.812 228.5 164.036 228.5 164.312H227.5ZM228.5 168.688C228.5 168.964 228.276 169.188 228 169.188C227.724 169.188 227.5 168.964 227.5 168.688H228.5ZM227.5 173.062C227.5 172.786 227.724 172.562 228 172.562C228.276 172.562 228.5 172.786 228.5 173.062H227.5ZM228.5 177.438C228.5 177.714 228.276 177.938 228 177.938C227.724 177.938 227.5 177.714 227.5 177.438H228.5ZM227.5 181.812C227.5 181.536 227.724 181.312 228 181.312C228.276 181.312 228.5 181.536 228.5 181.812H227.5ZM228.3 186.049C228.247 186.32 227.984 186.496 227.713 186.442C227.442 186.389 227.266 186.125 227.319 185.855L228.3 186.049ZM225.9 189.278C226.054 189.049 226.364 188.987 226.594 189.141C226.823 189.294 226.885 189.605 226.731 189.834L225.9 189.278ZM223.834 192.731C223.605 192.885 223.294 192.823 223.141 192.594C222.987 192.364 223.049 192.054 223.278 191.9L223.834 192.731ZM219.855 193.319C220.125 193.266 220.389 193.442 220.442 193.713C220.496 193.984 220.32 194.247 220.049 194.3L219.855 193.319ZM214.75 194.5C214.474 194.5 214.25 194.276 214.25 194C214.25 193.724 214.474 193.5 214.75 193.5V194.5ZM208.25 193.5C208.526 193.5 208.75 193.724 208.75 194C208.75 194.276 208.526 194.5 208.25 194.5V193.5ZM228.5 32V34.125H227.5V32H228.5ZM228.5 38.375V42.625H227.5V38.375H228.5ZM228.5 46.875V51.125H227.5V46.875H228.5ZM228.5 55.375V59.625H227.5V55.375H228.5ZM228.5 63.875V68.125H227.5V63.875H228.5ZM228.5 72.375V76.625H227.5V72.375H228.5ZM228.5 80.875V85.125H227.5V80.875H228.5ZM228.5 89.375V91.5H227.5V89.375H228.5ZM228.5 114V116.188H227.5V114H228.5ZM228.5 120.562V124.938H227.5V120.562H228.5ZM228.5 129.312V133.688H227.5V129.312H228.5ZM228.5 138.062V142.438H227.5V138.062H228.5ZM228.5 146.812V151.188H227.5V146.812H228.5ZM228.5 155.562V159.938H227.5V155.562H228.5ZM228.5 164.312V168.688H227.5V164.312H228.5ZM228.5 173.062V177.438H227.5V173.062H228.5ZM228.5 181.812V184H227.5V181.812H228.5ZM228.5 184C228.5 184.701 228.431 185.386 228.3 186.049L227.319 185.855C227.438 185.255 227.5 184.635 227.5 184H228.5ZM226.731 189.834C225.965 190.979 224.979 191.965 223.834 192.731L223.278 191.9C224.314 191.206 225.206 190.314 225.9 189.278L226.731 189.834ZM220.049 194.3C219.386 194.431 218.701 194.5 218 194.5V193.5C218.635 193.5 219.255 193.438 219.855 193.319L220.049 194.3ZM218 194.5H214.75V193.5H218V194.5ZM208.25 194.5H205V193.5H208.25V194.5Z" fill="#191919"/>
<circle cx="165.5" cy="79.5" r="17" fill="#FFFBA0" stroke="#191919"/>
<g clip-path="url(#clip6_1_597)">
<path d="M165.393 72.0285C166.053 72.0285 168.291 72.2125 169.346 74.5758C169.699 75.3712 169.615 76.7218 169.546 77.8072L169.544 77.8472C169.536 77.9672 169.529 78.0772 169.524 78.1872C169.574 78.2172 169.659 78.2472 169.791 78.2472C169.991 78.2365 170.23 78.1672 170.48 78.0465C170.59 77.9878 170.709 77.9772 170.789 77.9772C170.91 77.9772 171.028 77.9965 171.128 78.0372C171.428 78.1365 171.618 78.3565 171.618 78.5958C171.628 78.8952 171.358 79.1552 170.809 79.3745C170.75 79.3938 170.67 79.4245 170.58 79.4538C170.28 79.5438 169.82 79.6938 169.691 79.9938C169.631 80.1432 169.65 80.3432 169.771 80.5725L169.781 80.5825C169.821 80.6732 170.798 82.8992 172.975 83.2585C173.145 83.2878 173.265 83.4385 173.255 83.5978C173.255 83.6478 173.245 83.6972 173.225 83.7478C173.065 84.1272 172.376 84.4065 171.128 84.5952C171.088 84.6558 171.048 84.8452 171.018 84.9752C170.999 85.0945 170.969 85.2152 170.929 85.3438C170.878 85.5245 170.749 85.6138 170.559 85.6138H170.539C170.449 85.6138 170.33 85.5932 170.18 85.5645C169.94 85.5145 169.67 85.4745 169.332 85.4745C169.132 85.4745 168.932 85.4845 168.723 85.5238C168.323 85.5932 167.974 85.8332 167.574 86.1132C167.006 86.5125 166.357 86.9718 165.378 86.9718C165.338 86.9718 165.299 86.9618 165.258 86.9618H165.159C164.18 86.9618 163.541 86.5118 162.973 86.1032C162.574 85.8232 162.235 85.5838 161.835 85.5138C161.626 85.4838 161.416 85.4645 161.216 85.4645C160.856 85.4645 160.578 85.5238 160.368 85.5638C160.228 85.5925 160.108 85.6132 160.008 85.6132C159.759 85.6132 159.66 85.4638 159.62 85.3332C159.579 85.2052 159.56 85.0738 159.53 84.9552C159.499 84.8345 159.46 84.6258 159.419 84.5752C158.14 84.4272 157.452 84.1472 157.293 83.7578C157.272 83.7158 157.258 83.6578 157.256 83.6078C157.246 83.4458 157.366 83.2978 157.536 83.2685C159.712 82.9085 160.69 80.6825 160.73 80.5885L160.741 80.5692C160.861 80.3392 160.89 80.1392 160.82 79.9898C160.69 79.7005 160.231 79.5512 159.932 79.4505C159.852 79.4312 159.772 79.4012 159.702 79.3712C158.964 79.0812 158.864 78.7512 158.904 78.5225C158.964 78.2032 159.353 77.9938 159.682 77.9938C159.78 77.9938 159.862 78.0132 159.938 78.0432C160.218 78.1725 160.464 78.2432 160.674 78.2432C160.83 78.2432 160.93 78.2032 160.984 78.1732L160.953 77.7938C160.888 76.7098 160.803 75.3598 161.158 74.5692C162.184 72.2178 164.415 72.0378 165.074 72.0378L165.353 72.0278H165.393V72.0285Z" fill="#191919"/>
</g>
<circle cx="227.5" cy="28.5" r="17" fill="#FFFBA0" stroke="#191919"/>
<g clip-path="url(#clip7_1_597)">
<path d="M217.656 27.7548L226.695 22.0747C226.888 21.9684 227.107 21.9124 227.33 21.9124C227.552 21.9124 227.771 21.9684 227.964 22.0747L237.003 27.7548C237.125 27.8108 237.227 27.8983 237.299 28.0071C237.371 28.1159 237.409 28.2417 237.409 28.3702C237.409 28.4986 237.371 28.6244 237.299 28.7332C237.227 28.842 237.125 28.9295 237.003 28.9855L235.791 29.7429C234.887 28.3881 233.637 27.2723 232.156 26.499C230.675 25.7258 229.013 25.3203 227.322 25.3203C225.632 25.3203 223.969 25.7258 222.489 26.499C221.008 27.2723 219.758 28.3881 218.854 29.7429L217.642 28.9855C217.522 28.9271 217.422 28.8382 217.352 28.7288C217.283 28.6194 217.247 28.4937 217.248 28.366C217.25 28.2382 217.289 28.1133 217.361 28.0054C217.433 27.8975 217.535 27.8107 217.656 27.7548ZM227.322 27.6872C226.046 27.6899 224.791 27.9989 223.674 28.5853C222.558 29.1717 221.615 30.0165 220.935 31.0411L223.017 32.3531C223.463 31.6516 224.092 31.0712 224.844 30.6684C225.596 30.2656 226.445 30.0539 227.308 30.0539C228.172 30.0539 229.021 30.2656 229.772 30.6684C230.524 31.0712 231.154 31.6516 231.6 32.3531L233.681 31.0411C233.011 30.014 232.075 29.1665 230.962 28.5795C229.849 27.9924 228.596 27.6852 227.322 27.6872ZM227.322 32.4342C226.873 32.4371 226.431 32.5523 226.044 32.7683C225.656 32.9844 225.334 33.2936 225.113 33.6649L226.51 34.5304C226.737 34.7128 227.025 34.8133 227.322 34.8144C227.621 34.8157 227.909 34.7148 228.135 34.5304L229.532 33.6649C229.312 33.2921 228.992 32.9816 228.603 32.7653C228.215 32.549 227.773 32.4348 227.322 32.4342Z" fill="#191919"/>
</g>
<defs>
<clipPath id="clip0_1_597">
<rect width="16" height="16" fill="white" transform="translate(85.5 116.5)"/>
</clipPath>
<clipPath id="clip1_1_597">
<rect width="16" height="16" fill="white" transform="translate(9.5 76.5)"/>
</clipPath>
<clipPath id="clip2_1_597">
<rect width="14.6667" height="16" fill="white" transform="translate(48.166 34.5)"/>
</clipPath>
<clipPath id="clip3_1_597">
<rect width="14.6667" height="16" fill="white" transform="translate(134.168 9.5)"/>
</clipPath>
<clipPath id="clip4_1_597">
<rect width="14.6667" height="16" fill="white" transform="translate(182.166 128.5)"/>
</clipPath>
<clipPath id="clip5_1_597">
<rect width="16.6667" height="16" fill="white" transform="translate(258.168 55.5)"/>
</clipPath>
<clipPath id="clip6_1_597">
<rect width="16.6667" height="16" fill="white" transform="translate(157.168 71.5)"/>
</clipPath>
<clipPath id="clip7_1_597">
<rect width="21" height="13.44" fill="white" transform="translate(217 21.78)"/>
</clipPath>
</defs>
</svg>
