<svg width="316" height="252" viewBox="0 0 316 252" fill="none" xmlns="http://www.w3.org/2000/svg">
<rect x="24.5" y="52.5" width="217" height="43" rx="9.5" fill="white" stroke="#191919"/>
<path opacity="0.7" d="M79.568 74.294C79.568 71.434 77.709 69.432 75.044 69.432C72.392 69.432 70.533 71.447 70.533 74.294C70.533 77.154 72.379 79.156 75.031 79.156C77.696 79.156 79.568 77.154 79.568 74.294ZM78.229 74.294C78.229 76.465 76.955 77.934 75.044 77.934C73.133 77.934 71.872 76.478 71.872 74.294C71.872 72.11 73.133 70.667 75.044 70.667C76.955 70.667 78.229 72.11 78.229 74.294ZM82.6405 79H83.8495L86.5015 72.643H85.2275L83.8105 76.192C83.5895 76.751 83.3815 77.297 83.2775 77.713C83.1735 77.323 82.9915 76.79 82.7705 76.192L81.3795 72.643H80.0795L82.6405 79ZM89.7947 79.156C91.3677 79.156 92.4337 78.389 92.7457 77.024H91.6017C91.3937 77.752 90.7697 78.142 89.8207 78.142C88.6117 78.142 87.9097 77.401 87.8187 76.062L92.7327 76.049V75.594C92.7327 73.709 91.5497 72.461 89.7427 72.461C87.8967 72.461 86.6357 73.839 86.6357 75.828C86.6357 77.804 87.9227 79.156 89.7947 79.156ZM89.7427 73.488C90.8217 73.488 91.5107 74.19 91.5107 75.243H87.8447C88.0007 74.125 88.6767 73.488 89.7427 73.488ZM97.6076 72.591C97.3606 72.539 97.1786 72.513 96.9576 72.513C96.0866 72.513 95.4496 72.955 95.1896 73.618L95.1116 72.656H93.9676V79H95.1896V75.633C95.1896 74.411 95.9046 73.709 97.0616 73.709H97.6076V72.591ZM100.595 79H101.804L104.456 72.643H103.182L101.765 76.192C101.544 76.751 101.336 77.297 101.232 77.713C101.128 77.323 100.946 76.79 100.725 76.192L99.3342 72.643H98.0342L100.595 79ZM105.896 71.135C106.338 71.135 106.702 70.771 106.702 70.329C106.702 69.874 106.338 69.523 105.896 69.523C105.454 69.523 105.09 69.874 105.09 70.329C105.09 70.771 105.454 71.135 105.896 71.135ZM105.298 79H106.52V72.643H105.298V79ZM110.908 79.156C112.481 79.156 113.547 78.389 113.859 77.024H112.715C112.507 77.752 111.883 78.142 110.934 78.142C109.725 78.142 109.023 77.401 108.932 76.062L113.846 76.049V75.594C113.846 73.709 112.663 72.461 110.856 72.461C109.01 72.461 107.749 73.839 107.749 75.828C107.749 77.804 109.036 79.156 110.908 79.156ZM110.856 73.488C111.935 73.488 112.624 74.19 112.624 75.243H108.958C109.114 74.125 109.79 73.488 110.856 73.488ZM116.23 79H117.439L118.544 75.607C118.778 74.84 118.895 74.424 118.96 74.112C119.025 74.463 119.155 74.957 119.363 75.594L120.468 79H121.625L123.796 72.643H122.522L121.456 75.945C121.274 76.504 121.157 76.946 121.053 77.453C120.949 76.998 120.741 76.257 120.637 75.945L119.584 72.643H118.336L117.27 75.945C117.127 76.361 116.958 76.894 116.854 77.453C116.737 76.894 116.607 76.413 116.464 75.945L115.411 72.643H114.15L116.23 79Z" fill="#0A0F0D"/>
<g opacity="0.7">
<path d="M46.25 77.375L53 81.3125L59.75 77.375" stroke="#0A0F0D" stroke-width="1.5" stroke-linecap="round" stroke-linejoin="round"/>
<path d="M46.25 74L53 77.9375L59.75 74" stroke="#0A0F0D" stroke-width="1.5" stroke-linecap="round" stroke-linejoin="round"/>
<path d="M46.25 70.625L53 74.5625L59.75 70.625L53 66.6875L46.25 70.625Z" stroke="#0A0F0D" stroke-width="1.5" stroke-linecap="round" stroke-linejoin="round"/>
</g>
<rect x="4.5" y="0.5" width="217" height="43" rx="9.5" stroke="#191919" stroke-linejoin="round" stroke-dasharray="3 3"/>
<path opacity="0.8" d="M51.482 27L52.314 24.66H56.266L57.111 27H58.45L55.005 17.601H53.588L50.156 27H51.482ZM54.134 19.629C54.199 19.434 54.264 19.213 54.29 19.083C54.316 19.226 54.381 19.447 54.446 19.629L55.889 23.555H52.704L54.134 19.629ZM61.6682 27.156C62.6822 27.156 63.5402 26.714 63.9562 25.843L64.0602 27H65.1522V17.432H63.9432V21.67C63.5142 20.89 62.6952 20.461 61.7202 20.461C59.8352 20.461 58.7042 21.891 58.7042 23.841C58.7042 25.778 59.8222 27.156 61.6682 27.156ZM61.9152 26.051C60.6672 26.051 59.9392 25.115 59.9392 23.802C59.9392 22.502 60.6672 21.566 61.9152 21.566C63.1632 21.566 63.9302 22.502 63.9302 23.802C63.9302 25.128 63.1632 26.051 61.9152 26.051ZM69.3331 27.156C70.3471 27.156 71.2051 26.714 71.6211 25.843L71.7251 27H72.8171V17.432H71.6081V21.67C71.1791 20.89 70.3601 20.461 69.3851 20.461C67.5001 20.461 66.3691 21.891 66.3691 23.841C66.3691 25.778 67.4871 27.156 69.3331 27.156ZM69.5801 26.051C68.3321 26.051 67.6041 25.115 67.6041 23.802C67.6041 22.502 68.3321 21.566 69.5801 21.566C70.8281 21.566 71.5951 22.502 71.5951 23.802C71.5951 25.128 70.8281 26.051 69.5801 26.051ZM79.7337 27.156C80.7607 27.156 81.6317 26.701 81.9567 25.973L82.0867 27H83.1267V23.009C83.1267 21.293 82.0607 20.461 80.4877 20.461C78.8497 20.461 77.7577 21.332 77.7577 22.658H78.8237C78.8237 21.891 79.4087 21.436 80.4357 21.436C81.2937 21.436 81.9307 21.813 81.9307 22.879V23.061L79.9287 23.217C78.4337 23.334 77.5627 24.062 77.5627 25.232C77.5627 26.389 78.3687 27.156 79.7337 27.156ZM80.0847 26.207C79.2917 26.207 78.7977 25.869 78.7977 25.193C78.7977 24.569 79.2397 24.153 80.3187 24.049L81.9437 23.919V24.257C81.9437 25.453 81.2417 26.207 80.0847 26.207ZM89.3358 27V23.633C89.3358 22.398 89.9988 21.579 91.1428 21.579C92.0788 21.579 92.6768 22.099 92.6768 23.386V27H93.8988V23.113C93.8988 21.488 93.1318 20.461 91.4548 20.461C90.5578 20.461 89.7518 20.89 89.3488 21.618L89.2188 20.643H88.1138V27H89.3358ZM98.2043 27.156C99.7773 27.156 100.843 26.389 101.155 25.024H100.011C99.8033 25.752 99.1793 26.142 98.2303 26.142C97.0213 26.142 96.3193 25.401 96.2283 24.062L101.142 24.049V23.594C101.142 21.709 99.9593 20.461 98.1523 20.461C96.3063 20.461 95.0453 21.839 95.0453 23.828C95.0453 25.804 96.3323 27.156 98.2043 27.156ZM98.1523 21.488C99.2313 21.488 99.9203 22.19 99.9203 23.243H96.2543C96.4103 22.125 97.0863 21.488 98.1523 21.488ZM103.526 27H104.735L105.84 23.607C106.074 22.84 106.191 22.424 106.256 22.112C106.321 22.463 106.451 22.957 106.659 23.594L107.764 27H108.921L111.092 20.643H109.818L108.752 23.945C108.57 24.504 108.453 24.946 108.349 25.453C108.245 24.998 108.037 24.257 107.933 23.945L106.88 20.643H105.632L104.566 23.945C104.423 24.361 104.254 24.894 104.15 25.453C104.033 24.894 103.903 24.413 103.76 23.945L102.707 20.643H101.446L103.526 27Z" fill="#191919"/>
<g opacity="0.8">
<path d="M33 28.75C36.7279 28.75 39.75 25.7279 39.75 22C39.75 18.2721 36.7279 15.25 33 15.25C29.2721 15.25 26.25 18.2721 26.25 22C26.25 25.7279 29.2721 28.75 33 28.75Z" stroke="#191919" stroke-width="1.5" stroke-miterlimit="10"/>
<path d="M30.1875 22H35.8125" stroke="#191919" stroke-width="1.5" stroke-linecap="round" stroke-linejoin="round"/>
<path d="M33 19.1875V24.8125" stroke="#191919" stroke-width="1.5" stroke-linecap="round" stroke-linejoin="round"/>
</g>
<rect x="44.5" y="104.5" width="217" height="43" rx="9.5" fill="white" stroke="#191919"/>
<path opacity="0.7" d="M92.366 131V127.282H94.771L96.526 131H97.943L96.032 127.035C97.202 126.658 97.852 125.722 97.852 124.422C97.852 122.667 96.656 121.601 94.641 121.601H91.092V131H92.366ZM92.366 122.745H94.641C95.811 122.745 96.513 123.343 96.513 124.435C96.513 125.514 95.837 126.151 94.654 126.151H92.366V122.745ZM101.546 131.156C103.119 131.156 104.185 130.389 104.497 129.024H103.353C103.145 129.752 102.521 130.142 101.572 130.142C100.363 130.142 99.6608 129.401 99.5698 128.062L104.484 128.049V127.594C104.484 125.709 103.301 124.461 101.494 124.461C99.6478 124.461 98.3868 125.839 98.3868 127.828C98.3868 129.804 99.6738 131.156 101.546 131.156ZM101.494 125.488C102.573 125.488 103.262 126.19 103.262 127.243H99.5958C99.7518 126.125 100.428 125.488 101.494 125.488ZM105.719 133.847H106.941V129.96C107.357 130.74 108.202 131.169 109.216 131.169C111.101 131.169 112.167 129.713 112.167 127.776C112.167 125.826 111.036 124.461 109.216 124.461C108.202 124.461 107.344 124.916 106.915 125.787L106.824 124.643H105.719V133.847ZM106.954 127.828C106.954 126.502 107.708 125.579 108.956 125.579C110.204 125.579 110.945 126.515 110.945 127.828C110.945 129.128 110.204 130.064 108.956 130.064C107.708 130.064 106.954 129.128 106.954 127.828ZM112.968 127.815C112.968 129.778 114.372 131.156 116.283 131.156C118.181 131.156 119.585 129.778 119.585 127.815C119.585 125.852 118.181 124.474 116.283 124.474C114.372 124.474 112.968 125.852 112.968 127.815ZM114.203 127.815C114.203 126.489 115.048 125.566 116.283 125.566C117.505 125.566 118.363 126.489 118.363 127.815C118.363 129.141 117.505 130.064 116.283 130.064C115.048 130.064 114.203 129.141 114.203 127.815ZM124.447 124.591C124.2 124.539 124.018 124.513 123.797 124.513C122.926 124.513 122.289 124.955 122.029 125.618L121.951 124.656H120.807V131H122.029V127.633C122.029 126.411 122.744 125.709 123.901 125.709H124.447V124.591ZM127.511 131V125.67H128.759V124.643H127.511V122.654H126.289V124.643H125.041V125.67H126.289V131H127.511ZM129.206 129.154C129.206 130.363 130.155 131.156 131.65 131.156C133.158 131.156 134.198 130.389 134.198 129.18C134.198 128.231 133.665 127.737 132.586 127.477L131.468 127.204C130.844 127.048 130.532 126.762 130.532 126.333C130.532 125.748 130.961 125.41 131.728 125.41C132.469 125.41 132.898 125.813 132.924 126.45H134.094C134.068 125.241 133.158 124.461 131.767 124.461C130.363 124.461 129.375 125.202 129.375 126.372C129.375 127.308 129.908 127.867 131.039 128.14L132.157 128.4C132.82 128.569 133.028 128.829 133.028 129.258C133.028 129.843 132.534 130.194 131.676 130.194C130.87 130.194 130.376 129.804 130.376 129.154H129.206Z" fill="#0A0F0D"/>
<g opacity="0.7">
<path d="M74 124H70.4C70.2939 124 70.1922 124.042 70.1172 124.117C70.0421 124.192 70 124.294 70 124.4V128.667M70 132H74H70ZM70 132V128.667V132ZM70 132H66.4C66.2939 132 66.1922 131.958 66.1172 131.883C66.0421 131.808 66 131.706 66 131.6V129.067C66 128.961 66.0421 128.859 66.1172 128.784C66.1922 128.709 66.2939 128.667 66.4 128.667H70V132ZM74 132V124V132ZM74 132H77.6C77.7061 132 77.8078 131.958 77.8828 131.883C77.9579 131.808 78 131.706 78 131.6V120.4C78 120.294 77.9579 120.192 77.8828 120.117C77.8078 120.042 77.7061 120 77.6 120H74.4C74.2939 120 74.1922 120.042 74.1172 120.117C74.0421 120.192 74 120.294 74 120.4V124V132Z" stroke="#0A0F0D" stroke-width="1.5"/>
</g>
<rect x="64.5" y="156.5" width="217" height="43" rx="9.5" fill="white" stroke="#191919"/>
<path opacity="0.7" d="M114.992 183.143C117.111 183.143 118.788 181.895 119.191 180.023H117.839C117.488 181.18 116.396 181.921 115.018 181.921C113.12 181.921 111.872 180.491 111.872 178.294C111.872 176.097 113.12 174.667 115.018 174.667C116.383 174.667 117.436 175.408 117.787 176.63H119.152C118.801 174.706 117.176 173.445 115.057 173.445C112.366 173.445 110.533 175.408 110.533 178.307C110.533 181.219 112.314 183.143 114.992 183.143ZM119.999 179.815C119.999 181.778 121.403 183.156 123.314 183.156C125.212 183.156 126.616 181.778 126.616 179.815C126.616 177.852 125.212 176.474 123.314 176.474C121.403 176.474 119.999 177.852 119.999 179.815ZM121.234 179.815C121.234 178.489 122.079 177.566 123.314 177.566C124.536 177.566 125.394 178.489 125.394 179.815C125.394 181.141 124.536 182.064 123.314 182.064C122.079 182.064 121.234 181.141 121.234 179.815ZM129.061 182.987V179.529C129.061 178.437 129.698 177.579 130.881 177.579C131.791 177.579 132.402 178.099 132.402 179.386V183H133.624V179.113C133.624 177.488 132.844 176.461 131.219 176.461C130.231 176.461 129.464 176.929 129.061 177.618V173.432H127.839V182.987H129.061ZM134.77 179.815C134.77 181.778 136.174 183.156 138.085 183.156C139.983 183.156 141.387 181.778 141.387 179.815C141.387 177.852 139.983 176.474 138.085 176.474C136.174 176.474 134.77 177.852 134.77 179.815ZM136.005 179.815C136.005 178.489 136.85 177.566 138.085 177.566C139.307 177.566 140.165 178.489 140.165 179.815C140.165 181.141 139.307 182.064 138.085 182.064C136.85 182.064 136.005 181.141 136.005 179.815ZM146.25 176.591C146.003 176.539 145.821 176.513 145.6 176.513C144.729 176.513 144.092 176.955 143.832 177.618L143.754 176.656H142.61V183H143.832V179.633C143.832 178.411 144.547 177.709 145.704 177.709H146.25V176.591ZM149.314 183V177.67H150.562V176.643H149.314V174.654H148.092V176.643H146.844V177.67H148.092V183H149.314ZM151.009 181.154C151.009 182.363 151.958 183.156 153.453 183.156C154.961 183.156 156.001 182.389 156.001 181.18C156.001 180.231 155.468 179.737 154.389 179.477L153.271 179.204C152.647 179.048 152.335 178.762 152.335 178.333C152.335 177.748 152.764 177.41 153.531 177.41C154.272 177.41 154.701 177.813 154.727 178.45H155.897C155.871 177.241 154.961 176.461 153.57 176.461C152.166 176.461 151.178 177.202 151.178 178.372C151.178 179.308 151.711 179.867 152.842 180.14L153.96 180.4C154.623 180.569 154.831 180.829 154.831 181.258C154.831 181.843 154.337 182.194 153.479 182.194C152.673 182.194 152.179 181.804 152.179 181.154H151.009Z" fill="#0A0F0D"/>
<g opacity="0.7">
<path d="M90.1875 180.25C92.2068 180.25 93.8438 178.613 93.8438 176.594C93.8438 174.574 92.2068 172.938 90.1875 172.938C88.1682 172.938 86.5312 174.574 86.5312 176.594C86.5312 178.613 88.1682 180.25 90.1875 180.25Z" stroke="#0A0F0D" stroke-width="1.5" stroke-miterlimit="10"/>
<path d="M94.9277 173.071C95.2509 172.983 95.5843 172.939 95.9191 172.938C96.8888 172.938 97.8188 173.323 98.5045 174.008C99.1902 174.694 99.5754 175.624 99.5754 176.594C99.5754 177.563 99.1902 178.493 98.5045 179.179C97.8188 179.865 96.8888 180.25 95.9191 180.25" stroke="#0A0F0D" stroke-width="1.5" stroke-linecap="round" stroke-linejoin="round"/>
<path d="M85.125 182.88C85.6959 182.067 86.4539 181.404 87.3351 180.946C88.2162 180.489 89.1946 180.25 90.1875 180.25C91.1804 180.25 92.1588 180.489 93.0399 180.946C93.9211 181.404 94.6791 182.067 95.25 182.88" stroke="#0A0F0D" stroke-width="1.5" stroke-linecap="round" stroke-linejoin="round"/>
<path d="M95.918 180.25C96.911 180.249 97.8895 180.488 98.7708 180.946C99.652 181.404 100.41 182.067 100.98 182.88" stroke="#0A0F0D" stroke-width="1.5" stroke-linecap="round" stroke-linejoin="round"/>
</g>
<rect x="84.5" y="208.5" width="217" height="43" rx="9.5" fill="white" stroke="#191919"/>
<path opacity="0.7" d="M132.34 235V230.983C132.34 229.67 132.314 228.708 132.249 228.253L134.979 235H136.175L138.918 228.227C138.853 228.89 138.84 229.527 138.84 231.282V235H140.088V225.601H138.814L135.577 233.505L132.34 225.601H131.092V235H132.34ZM143.798 235.156C144.825 235.156 145.696 234.701 146.021 233.973L146.151 235H147.191V231.009C147.191 229.293 146.125 228.461 144.552 228.461C142.914 228.461 141.822 229.332 141.822 230.658H142.888C142.888 229.891 143.473 229.436 144.5 229.436C145.358 229.436 145.995 229.813 145.995 230.879V231.061L143.993 231.217C142.498 231.334 141.627 232.062 141.627 233.232C141.627 234.389 142.433 235.156 143.798 235.156ZM144.149 234.207C143.356 234.207 142.862 233.869 142.862 233.193C142.862 232.569 143.304 232.153 144.383 232.049L146.008 231.919V232.257C146.008 233.453 145.306 234.207 144.149 234.207ZM152.393 228.591C152.146 228.539 151.964 228.513 151.743 228.513C150.872 228.513 150.235 228.955 149.975 229.618L149.897 228.656H148.753V235H149.975V231.633C149.975 230.411 150.69 229.709 151.847 229.709H152.393V228.591ZM154.657 235V233.193L155.736 232.062L157.595 235H158.999L156.581 231.178L159.012 228.643H157.478L154.657 231.633V225.432H153.435V235H154.657ZM162.382 235.156C163.955 235.156 165.021 234.389 165.333 233.024H164.189C163.981 233.752 163.357 234.142 162.408 234.142C161.199 234.142 160.497 233.401 160.406 232.062L165.32 232.049V231.594C165.32 229.709 164.137 228.461 162.33 228.461C160.484 228.461 159.223 229.839 159.223 231.828C159.223 233.804 160.51 235.156 162.382 235.156ZM162.33 229.488C163.409 229.488 164.098 230.19 164.098 231.243H160.432C160.588 230.125 161.264 229.488 162.33 229.488ZM168.286 235V229.67H169.534V228.643H168.286V226.654H167.064V228.643H165.816V229.67H167.064V235H168.286ZM171.098 227.135C171.54 227.135 171.904 226.771 171.904 226.329C171.904 225.874 171.54 225.523 171.098 225.523C170.656 225.523 170.292 225.874 170.292 226.329C170.292 226.771 170.656 227.135 171.098 227.135ZM170.5 235H171.722V228.643H170.5V235ZM174.589 235V231.633C174.589 230.398 175.252 229.579 176.396 229.579C177.332 229.579 177.93 230.099 177.93 231.386V235H179.152V231.113C179.152 229.488 178.385 228.461 176.708 228.461C175.811 228.461 175.005 228.89 174.602 229.618L174.472 228.643H173.367V235H174.589ZM180.311 231.659C180.311 233.44 181.455 234.831 183.262 234.831C184.263 234.831 185.095 234.389 185.511 233.648V234.922C185.511 236.131 184.731 236.911 183.535 236.911C182.469 236.911 181.767 236.365 181.611 235.429H180.389C180.623 237.041 181.806 238.016 183.535 238.016C185.485 238.016 186.72 236.742 186.72 234.74V228.643H185.628L185.537 229.722C185.134 228.929 184.341 228.461 183.314 228.461C181.468 228.461 180.311 229.865 180.311 231.659ZM181.533 231.633C181.533 230.463 182.261 229.527 183.483 229.527C184.731 229.527 185.459 230.411 185.459 231.633C185.459 232.881 184.705 233.765 183.47 233.765C182.274 233.765 181.533 232.829 181.533 231.633Z" fill="#0A0F0D"/>
<g opacity="0.7" clip-path="url(#clip0_1_532)">
<path d="M120.031 223.363C119.838 223.237 119.617 223.162 119.387 223.142C119.158 223.122 118.927 223.16 118.715 223.25L111.774 225.984C111.609 226.051 111.434 226.085 111.256 226.085H106.812C106.44 226.085 106.082 226.233 105.818 226.497C105.554 226.761 105.406 227.118 105.406 227.491V227.604H104V230.979H105.406V231.125C105.415 231.492 105.567 231.841 105.83 232.098C106.093 232.354 106.445 232.498 106.812 232.498L108.5 236.075C108.614 236.316 108.794 236.52 109.019 236.663C109.244 236.806 109.505 236.883 109.771 236.885H110.48C110.851 236.882 111.206 236.733 111.467 236.469C111.728 236.206 111.875 235.85 111.875 235.479V232.633L118.715 235.366C118.883 235.433 119.063 235.468 119.244 235.468C119.525 235.463 119.798 235.377 120.031 235.22C120.216 235.095 120.369 234.928 120.477 234.732C120.584 234.537 120.644 234.318 120.65 234.095V224.521C120.649 224.292 120.592 224.067 120.484 223.865C120.376 223.663 120.221 223.491 120.031 223.363ZM110.469 227.491V231.125H106.812V227.491H110.469ZM110.469 235.479H109.76L108.376 232.498H110.469V235.479ZM112.291 231.294C112.158 231.225 112.018 231.169 111.875 231.125V227.413C112.017 227.383 112.156 227.342 112.291 227.289L119.244 224.521V234.061L112.291 231.294ZM120.684 227.885V230.698C121.057 230.698 121.414 230.549 121.678 230.286C121.942 230.022 122.09 229.664 122.09 229.291C122.09 228.918 121.942 228.561 121.678 228.297C121.414 228.033 121.057 227.885 120.684 227.885Z" fill="#0A0F0D"/>
</g>
<path d="M219.333 21C219.333 22.4728 220.527 23.6667 222 23.6667C223.473 23.6667 224.667 22.4728 224.667 21C224.667 19.5272 223.473 18.3333 222 18.3333C220.527 18.3333 219.333 19.5272 219.333 21ZM246 72.5L241 70.1132V75.8868L246 73.5V72.5ZM222 21.5H223.95V20.5H222V21.5ZM227.85 21.5H231.75V20.5H227.85V21.5ZM235.65 21.5H239.55V20.5H235.65V21.5ZM243.45 21.5H247.35V20.5H243.45V21.5ZM251.25 21.5H255.15V20.5H251.25V21.5ZM259.05 21.5H261V20.5H259.05V21.5ZM261 21.5C261.598 21.5 262.187 21.5389 262.764 21.6141L262.893 20.6225C262.273 20.5417 261.641 20.5 261 20.5V21.5ZM266.168 22.5242C267.265 22.9792 268.289 23.5749 269.218 24.2889L269.828 23.4959C268.83 22.7293 267.73 22.0894 266.551 21.6005L266.168 22.5242ZM271.711 26.7817C272.425 27.7108 273.021 28.7353 273.476 29.8325L274.4 29.4494C273.911 28.2704 273.271 27.17 272.504 26.1724L271.711 26.7817ZM274.386 33.2361C274.461 33.8132 274.5 34.4019 274.5 35H275.5C275.5 34.3586 275.458 33.7266 275.377 33.1068L274.386 33.2361ZM274.5 35V37H275.5V35H274.5ZM274.5 41V45H275.5V41H274.5ZM274.5 49V53H275.5V49H274.5ZM274.5 57V59H275.5V57H274.5ZM274.5 59C274.5 59.5981 274.461 60.1868 274.386 60.7639L275.377 60.8932C275.458 60.2734 275.5 59.6414 275.5 59H274.5ZM273.476 64.1675C273.021 65.2647 272.425 66.2892 271.711 67.2183L272.504 67.8276C273.271 66.83 273.911 65.7296 274.4 64.5506L273.476 64.1675ZM269.218 69.7111C268.289 70.4251 267.265 71.0208 266.168 71.4758L266.551 72.3995C267.73 71.9106 268.83 71.2707 269.828 70.5041L269.218 69.7111ZM262.764 72.3859C262.187 72.4611 261.598 72.5 261 72.5V73.5C261.641 73.5 262.273 73.4583 262.893 73.3775L262.764 72.3859ZM261 72.5H259.333V73.5H261V72.5ZM256 72.5H252.667V73.5H256V72.5ZM249.333 72.5H246V73.5H249.333V72.5Z" fill="black"/>
<path d="M259.333 127C259.333 128.473 260.527 129.667 262 129.667C263.473 129.667 264.667 128.473 264.667 127C264.667 125.527 263.473 124.333 262 124.333C260.527 124.333 259.333 125.527 259.333 127ZM286 178.5L281 176.113V181.887L286 179.5V178.5ZM262 127.5H263.95V126.5H262V127.5ZM267.85 127.5H271.75V126.5H267.85V127.5ZM275.65 127.5H279.55V126.5H275.65V127.5ZM283.45 127.5H287.35V126.5H283.45V127.5ZM291.25 127.5H295.15V126.5H291.25V127.5ZM299.05 127.5H301V126.5H299.05V127.5ZM301 127.5C301.598 127.5 302.187 127.539 302.764 127.614L302.893 126.623C302.273 126.542 301.641 126.5 301 126.5V127.5ZM306.168 128.524C307.265 128.979 308.289 129.575 309.218 130.289L309.828 129.496C308.83 128.729 307.73 128.089 306.551 127.6L306.168 128.524ZM311.711 132.782C312.425 133.711 313.021 134.735 313.476 135.832L314.4 135.449C313.911 134.27 313.271 133.17 312.504 132.172L311.711 132.782ZM314.386 139.236C314.461 139.813 314.5 140.402 314.5 141H315.5C315.5 140.359 315.458 139.727 315.377 139.107L314.386 139.236ZM314.5 141V143H315.5V141H314.5ZM314.5 147V151H315.5V147H314.5ZM314.5 155V159H315.5V155H314.5ZM314.5 163V165H315.5V163H314.5ZM314.5 165C314.5 165.598 314.461 166.187 314.386 166.764L315.377 166.893C315.458 166.273 315.5 165.641 315.5 165H314.5ZM313.476 170.168C313.021 171.265 312.425 172.289 311.711 173.218L312.504 173.828C313.271 172.83 313.911 171.73 314.4 170.551L313.476 170.168ZM309.218 175.711C308.289 176.425 307.265 177.021 306.168 177.476L306.551 178.4C307.73 177.911 308.83 177.271 309.828 176.504L309.218 175.711ZM302.764 178.386C302.187 178.461 301.598 178.5 301 178.5V179.5C301.641 179.5 302.273 179.458 302.893 179.377L302.764 178.386ZM301 178.5H299.333V179.5H301V178.5ZM296 178.5H292.667V179.5H296V178.5ZM289.333 178.5H286V179.5H289.333V178.5Z" fill="black"/>
<path d="M27.1667 73C27.1667 74.4728 25.9728 75.6667 24.5 75.6667C23.0272 75.6667 21.8333 74.4728 21.8333 73C21.8333 71.5272 23.0272 70.3333 24.5 70.3333C25.9728 70.3333 27.1667 71.5272 27.1667 73ZM40 124.5L45 122.113V127.887L40 125.5V124.5ZM39.375 125.5H35.625V124.5H39.375V125.5ZM31.875 125.5H28.125V124.5H31.875V125.5ZM24.375 125.5H20.625V124.5H24.375V125.5ZM16.875 125.5H15V124.5H16.875V125.5ZM15 125.5C14.3586 125.5 13.7266 125.458 13.1068 125.377L13.2361 124.386C13.8132 124.461 14.4019 124.5 15 124.5V125.5ZM9.44944 124.4C8.27036 123.911 7.16997 123.271 6.17236 122.504L6.78168 121.711C7.7108 122.425 8.73525 123.021 9.8325 123.476L9.44944 124.4ZM3.49595 119.828C2.72932 118.83 2.08941 117.73 1.60046 116.551L2.52419 116.167C2.9792 117.265 3.57488 118.289 4.28887 119.218L3.49595 119.828ZM0.622532 112.893C0.541679 112.273 0.5 111.641 0.5 111H1.5C1.5 111.598 1.53886 112.187 1.61413 112.764L0.622532 112.893ZM0.5 111V109H1.5V111H0.5ZM0.5 105V101H1.5V105H0.5ZM0.5 97V93H1.5V97H0.5ZM0.5 89V87H1.5V89H0.5ZM0.5 87C0.5 86.3586 0.541679 85.7266 0.622532 85.1068L1.61413 85.2361C1.53886 85.8132 1.5 86.4019 1.5 87H0.5ZM1.60046 81.4494C2.08941 80.2704 2.72932 79.17 3.49595 78.1724L4.28887 78.7817C3.57488 79.7108 2.9792 80.7353 2.52419 81.8325L1.60046 81.4494ZM6.17236 75.4959C7.16997 74.7293 8.27036 74.0894 9.44944 73.6005L9.8325 74.5242C8.73525 74.9792 7.7108 75.5749 6.78168 76.2889L6.17236 75.4959ZM13.1068 72.6225C13.7266 72.5417 14.3586 72.5 15 72.5V73.5C14.4019 73.5 13.8132 73.5389 13.2361 73.6141L13.1068 72.6225ZM15 72.5H17.375V73.5H15V72.5ZM22.125 72.5H24.5V73.5H22.125V72.5Z" fill="black"/>
<path d="M67.1667 178C67.1667 179.473 65.9728 180.667 64.5 180.667C63.0272 180.667 61.8333 179.473 61.8333 178C61.8333 176.527 63.0272 175.333 64.5 175.333C65.9728 175.333 67.1667 176.527 67.1667 178ZM80 229.5L85 227.113V232.887L80 230.5V229.5ZM79.375 230.5H75.625V229.5H79.375V230.5ZM71.875 230.5H68.125V229.5H71.875V230.5ZM64.375 230.5H60.625V229.5H64.375V230.5ZM56.875 230.5H55V229.5H56.875V230.5ZM55 230.5C54.3586 230.5 53.7266 230.458 53.1068 230.377L53.2361 229.386C53.8132 229.461 54.4019 229.5 55 229.5V230.5ZM49.4494 229.4C48.2704 228.911 47.17 228.271 46.1724 227.504L46.7817 226.711C47.7108 227.425 48.7353 228.021 49.8325 228.476L49.4494 229.4ZM43.4959 224.828C42.7293 223.83 42.0894 222.73 41.6005 221.551L42.5242 221.167C42.9792 222.265 43.5749 223.289 44.2889 224.218L43.4959 224.828ZM40.6225 217.893C40.5417 217.273 40.5 216.641 40.5 216H41.5C41.5 216.598 41.5389 217.187 41.6141 217.764L40.6225 217.893ZM40.5 216V214H41.5V216H40.5ZM40.5 210V206H41.5V210H40.5ZM40.5 202V198H41.5V202H40.5ZM40.5 194V192H41.5V194H40.5ZM40.5 192C40.5 191.359 40.5417 190.727 40.6225 190.107L41.6141 190.236C41.5389 190.813 41.5 191.402 41.5 192H40.5ZM41.6005 186.449C42.0894 185.27 42.7293 184.17 43.4959 183.172L44.2889 183.782C43.5749 184.711 42.9792 185.735 42.5242 186.832L41.6005 186.449ZM46.1724 180.496C47.17 179.729 48.2704 179.089 49.4494 178.6L49.8325 179.524C48.7353 179.979 47.7108 180.575 46.7817 181.289L46.1724 180.496ZM53.1068 177.623C53.7266 177.542 54.3586 177.5 55 177.5V178.5C54.4019 178.5 53.8132 178.539 53.2361 178.614L53.1068 177.623ZM55 177.5H57.375V178.5H55V177.5ZM62.125 177.5H64.5V178.5H62.125V177.5Z" fill="black"/>
<defs>
<clipPath id="clip0_1_532">
<rect width="18" height="18" fill="white" transform="translate(104 221)"/>
</clipPath>
</defs>
</svg>
